M48
;DRILL FILE
;Generated by LibrePCB 0.1.4
;Creation Date: 2020-08-29T22:21:27
FMAT,2
METRIC,TZ
T1C0.3
T2C0.7
T3C0.9
T4C1.0
T5C1.2
%
G90
G05
M71
T1
X14.0Y34.0
X25.0Y14.0
X22.0Y7.0
X15.0Y24.0
X42.0Y4.0
X15.0Y33.0
X21.0Y7.0
X18.0Y30.0
X42.0Y3.0
X9.0Y15.0
X45.0Y39.0
X48.0Y39.0
X19.0Y30.0
X2.0Y11.0
X3.0Y10.0
X26.0Y8.0
X39.0Y31.0
X27.0Y14.0
X8.89Y19.6375
X13.0Y26.625
X25.59Y36.67125
X14.0Y32.0
X3.0Y11.0
X22.0Y8.0
X39.0Y15.0
X16.0Y32.0
X9.0Y14.0
X11.0Y15.0
X14.0Y33.0
X21.0Y33.0
X40.0Y31.0
X47.0Y31.0
X11.0Y14.0
X42.0Y31.0
X47.0Y39.0
X39.0Y39.0
X41.0Y3.0
X10.0Y14.0
X46.0Y39.0
X3.0Y12.0
X41.0Y5.0
X20.0Y30.0
X40.0Y39.0
X26.0Y14.0
X16.0Y24.0
X16.0Y25.0
X42.0Y39.0
X10.0Y15.0
X18.0Y35.0
X42.0Y5.0
X48.0Y31.0
X23.0Y14.0
X41.0Y31.0
X41.0Y15.0
X41.0Y14.0
X42.0Y6.0
X14.0Y24.0
X41.0Y13.0
X2.0Y12.0
X2.0Y10.0
X24.0Y14.0
X27.0Y7.0
X41.0Y39.0
X19.0Y35.0
X23.8125Y31.75
X31.6225Y34.29
X6.0325Y32.54375
X34.48Y31.4325
X15.0Y32.0
X40.0Y15.0
X41.0Y4.0
X46.0Y31.0
X15.0Y25.0
X40.0Y14.0
X45.0Y31.0
X20.0Y33.0
X14.0Y25.0
X41.0Y6.0
X26.0Y7.0
T2
X27.60625Y4.60375
X26.10625Y4.60375
X21.60625Y4.60375
X24.60625Y4.60375
X23.10625Y4.60375
T3
X18.6725Y37.185
X21.2125Y37.185
X16.1325Y37.185
X11.0525Y37.185
X13.5925Y37.185
X9.2Y26.805
X9.2Y29.345
T4
X15.39875Y14.44625
X15.39875Y11.90625
X15.39875Y16.98625
X14.2875Y5.3975
X11.7475Y5.3975
T5
X2.6Y5.68
X2.6Y14.32
X6.4Y5.68
X6.4Y14.32
T0
M30
