G04 --- HEADER BEGIN --- *
%TF.GenerationSoftware,LibrePCB,LibrePCB,0.1.4*%
%TF.CreationDate,2020-08-29T22:21:27*%
%TF.ProjectId,Sensilo - default,d394d563-925a-41f4-bd4a-babca7d43e4c,v1*%
%TF.Part,Single*%
%FSLAX66Y66*%
%MOMM*%
G01*
G74*
G04 --- HEADER END --- *
G04 --- APERTURE LIST BEGIN --- *
%ADD10R,0.95X1.45*%
%ADD11O,1.787X2.39*%
%ADD12R,1.787X2.39*%
%ADD13R,1.45X0.95*%
%ADD14R,0.88X0.6*%
%ADD15R,1.45X1.9*%
%ADD16R,1.5X1.7*%
%ADD17R,1.7X1.5*%
%ADD18C,0.0*%
%ADD19C,0.2*%
%ADD20O,2.2X1.8*%
%ADD21R,1.35X0.9*%
%ADD22R,1.35X1.1*%
%ADD23R,1.35X1.0*%
%ADD24C,2.2*%
%ADD25R,1.0X3.2*%
%ADD26R,3.2X1.0*%
%ADD27R,2.7X1.0*%
%ADD28R,1.0X2.7*%
%ADD29R,2.39X1.787*%
%ADD30O,2.39X1.787*%
%ADD31O,2.74X2.0*%
%ADD32R,2.74X2.0*%
%ADD33R,1.4X1.4*%
%ADD34R,0.9X1.8*%
%ADD35R,0.9X0.55*%
%ADD36O,1.4X2.0*%
%ADD37R,1.4X2.0*%
%ADD38C,2.0*%
%ADD39R,1.3X0.8*%
%ADD40R,0.96X2.6*%
G04 --- APERTURE LIST END --- *
G04 --- BOARD BEGIN --- *
D10*
X8525000Y9000000D03*
X10475000Y9000000D03*
D11*
X11747500Y5397500D03*
D12*
X14287500Y5397500D03*
D13*
X23812500Y34947500D03*
X23812500Y32997500D03*
D14*
X9152500Y35090000D03*
D15*
X7937500Y34290000D03*
D14*
X9152500Y33490000D03*
X6722500Y35090000D03*
X6722500Y34290000D03*
X9152500Y34290000D03*
X6722500Y33490000D03*
D16*
X12380000Y33337500D03*
X10480000Y33337500D03*
X34318750Y38702500D03*
X32418750Y38702500D03*
D17*
X10500000Y19680000D03*
X10500000Y17780000D03*
D18*
X40588750Y33513750D02*
X41008750Y33513750D01*
X41008750Y33313750D01*
X40588750Y33313750D01*
X40588750Y33513750D01*
G36*
X40588750Y33513750D02*
X41008750Y33513750D01*
X41008750Y33313750D01*
X40588750Y33313750D01*
X40588750Y33513750D01*
G37*
X39428750Y34873750D02*
X39628750Y34873750D01*
X39628750Y35293750D01*
X39428750Y35293750D01*
X39428750Y34873750D01*
G36*
X39428750Y34873750D02*
X39628750Y34873750D01*
X39628750Y35293750D01*
X39428750Y35293750D01*
X39428750Y34873750D01*
G37*
X39028750Y34873750D02*
X39228750Y34873750D01*
X39228750Y35293750D01*
X39028750Y35293750D01*
X39028750Y34873750D01*
G36*
X39028750Y34873750D02*
X39228750Y34873750D01*
X39228750Y35293750D01*
X39028750Y35293750D01*
X39028750Y34873750D01*
G37*
X38468750Y34313750D02*
X38048750Y34313750D01*
X38048750Y34113750D01*
X38468750Y34113750D01*
X38468750Y34313750D01*
G36*
X38468750Y34313750D02*
X38048750Y34313750D01*
X38048750Y34113750D01*
X38468750Y34113750D01*
X38468750Y34313750D01*
G37*
X39428750Y32753750D02*
X39628750Y32753750D01*
X39628750Y32333750D01*
X39428750Y32333750D01*
X39428750Y32753750D01*
G36*
X39428750Y32753750D02*
X39628750Y32753750D01*
X39628750Y32333750D01*
X39428750Y32333750D01*
X39428750Y32753750D01*
G37*
X38893750Y34660750D02*
X40163750Y34660750D01*
G75*
G02*
X40375750Y34448750I0J-212000D01*
G01*
X40375750Y33178750D01*
G02*
X40163750Y32966750I-212000J0D01*
G01*
X38893750Y32966750D01*
G02*
X38681750Y33178750I0J212000D01*
G01*
X38681750Y34278750D01*
X38896750Y34278750D01*
G03*
X39063750Y34111750I167000J0D01*
G01*
G03*
X39230750Y34278750I0J167000D01*
G01*
G03*
X39063750Y34445750I-167000J0D01*
G01*
G03*
X38896750Y34278750I0J-167000D01*
G01*
X38681750Y34278750D01*
X38681750Y34448750D01*
G02*
X38893750Y34660750I212000J0D01*
G01*
G36*
X38893750Y34660750D02*
X40163750Y34660750D01*
G02*
X40375750Y34448750I0J-212000D01*
G01*
X40375750Y33178750D01*
G02*
X40163750Y32966750I-212000J0D01*
G01*
X38893750Y32966750D01*
G02*
X38681750Y33178750I0J212000D01*
G01*
X38681750Y34278750D01*
X38896750Y34278750D01*
G03*
X39063750Y34111750I167000J0D01*
G01*
G03*
X39230750Y34278750I0J167000D01*
G01*
G03*
X39063750Y34445750I-167000J0D01*
G01*
G03*
X38896750Y34278750I0J-167000D01*
G01*
X38681750Y34278750D01*
X38681750Y34448750D01*
G02*
X38893750Y34660750I212000J0D01*
G01*
G37*
X40588750Y34313750D02*
X41008750Y34313750D01*
X41008750Y34113750D01*
X40588750Y34113750D01*
X40588750Y34313750D01*
G36*
X40588750Y34313750D02*
X41008750Y34313750D01*
X41008750Y34113750D01*
X40588750Y34113750D01*
X40588750Y34313750D01*
G37*
X39828750Y34873750D02*
X40028750Y34873750D01*
X40028750Y35293750D01*
X39828750Y35293750D01*
X39828750Y34873750D01*
G36*
X39828750Y34873750D02*
X40028750Y34873750D01*
X40028750Y35293750D01*
X39828750Y35293750D01*
X39828750Y34873750D01*
G37*
X38468750Y33913750D02*
X38048750Y33913750D01*
X38048750Y33713750D01*
X38468750Y33713750D01*
X38468750Y33913750D01*
G36*
X38468750Y33913750D02*
X38048750Y33913750D01*
X38048750Y33713750D01*
X38468750Y33713750D01*
X38468750Y33913750D01*
G37*
X39028750Y32753750D02*
X39228750Y32753750D01*
X39228750Y32333750D01*
X39028750Y32333750D01*
X39028750Y32753750D01*
G36*
X39028750Y32753750D02*
X39228750Y32753750D01*
X39228750Y32333750D01*
X39028750Y32333750D01*
X39028750Y32753750D01*
G37*
X38468750Y33513750D02*
X38048750Y33513750D01*
X38048750Y33313750D01*
X38468750Y33313750D01*
X38468750Y33513750D01*
G36*
X38468750Y33513750D02*
X38048750Y33513750D01*
X38048750Y33313750D01*
X38468750Y33313750D01*
X38468750Y33513750D01*
G37*
X39828750Y32753750D02*
X40028750Y32753750D01*
X40028750Y32333750D01*
X39828750Y32333750D01*
X39828750Y32753750D01*
G36*
X39828750Y32753750D02*
X40028750Y32753750D01*
X40028750Y32333750D01*
X39828750Y32333750D01*
X39828750Y32753750D01*
G37*
X40588750Y33913750D02*
X41008750Y33913750D01*
X41008750Y33713750D01*
X40588750Y33713750D01*
X40588750Y33913750D01*
G36*
X40588750Y33913750D02*
X41008750Y33913750D01*
X41008750Y33713750D01*
X40588750Y33713750D01*
X40588750Y33913750D01*
G37*
D19*
X41628750Y34053750D02*
X41628750Y35053750D01*
X41962083Y34339306D01*
X42295417Y35053750D01*
X42295417Y34053750D01*
X43172084Y34053750D02*
X43172084Y34577083D01*
X43124306Y34672639D01*
X43028750Y34720417D01*
X42838750Y34720417D01*
X42743195Y34672639D01*
X43172084Y34101528D02*
X43076528Y34053750D01*
X42838750Y34053750D01*
X42743195Y34101528D01*
X42695417Y34197083D01*
X42695417Y34291528D01*
X42743195Y34387083D01*
X42838750Y34434861D01*
X43076528Y34434861D01*
X43172084Y34482639D01*
X44048751Y34053750D02*
X44048751Y35053750D01*
X44048751Y34101528D02*
X43953195Y34053750D01*
X43762084Y34053750D01*
X43667640Y34101528D01*
X43619862Y34149306D01*
X43572084Y34243750D01*
X43572084Y34530417D01*
X43619862Y34624861D01*
X43667640Y34672639D01*
X43762084Y34720417D01*
X43953195Y34720417D01*
X44048751Y34672639D01*
X44877640Y34101528D02*
X44782084Y34053750D01*
X44592084Y34053750D01*
X44496529Y34101528D01*
X44448751Y34197083D01*
X44448751Y34577083D01*
X44496529Y34672639D01*
X44592084Y34720417D01*
X44782084Y34720417D01*
X44877640Y34672639D01*
X44925418Y34577083D01*
X44925418Y34482639D01*
X44448751Y34387083D01*
X46125417Y35053750D02*
X46363195Y34053750D01*
X46554306Y34768194D01*
X46744306Y34053750D01*
X46982084Y35053750D01*
X47429862Y34053750D02*
X47429862Y34720417D01*
X47429862Y35053750D02*
X47382084Y35005972D01*
X47429862Y34958194D01*
X47477640Y35005972D01*
X47429862Y35053750D01*
X47429862Y34958194D01*
X47877640Y34720417D02*
X48258751Y34720417D01*
X48020973Y35053750D02*
X48020973Y34197083D01*
X48067640Y34101528D01*
X48163196Y34053750D01*
X48258751Y34053750D01*
X48658751Y34053750D02*
X48658751Y35053750D01*
X49087640Y34053750D02*
X49087640Y34577083D01*
X49039862Y34672639D01*
X48944307Y34720417D01*
X48802084Y34720417D01*
X48706529Y34672639D01*
X48658751Y34624861D01*
X42105417Y32573750D02*
X41628750Y32573750D01*
X41628750Y33573750D01*
X42553195Y32573750D02*
X42553195Y33240417D01*
X42553195Y33573750D02*
X42505417Y33525972D01*
X42553195Y33478194D01*
X42600973Y33525972D01*
X42553195Y33573750D01*
X42553195Y33478194D01*
X43000973Y32573750D02*
X43000973Y33573750D01*
X43000973Y33192639D02*
X43096529Y33240417D01*
X43286529Y33240417D01*
X43382084Y33192639D01*
X43429862Y33144861D01*
X43477640Y33050417D01*
X43477640Y32763750D01*
X43429862Y32669306D01*
X43382084Y32621528D01*
X43286529Y32573750D01*
X43096529Y32573750D01*
X43000973Y32621528D01*
X43877640Y32573750D02*
X43877640Y33240417D01*
X43877640Y33050417D02*
X43925418Y33144861D01*
X43973196Y33192639D01*
X44067640Y33240417D01*
X44163196Y33240417D01*
X44992085Y32621528D02*
X44896529Y32573750D01*
X44706529Y32573750D01*
X44610974Y32621528D01*
X44563196Y32717083D01*
X44563196Y33097083D01*
X44610974Y33192639D01*
X44706529Y33240417D01*
X44896529Y33240417D01*
X44992085Y33192639D01*
X45039863Y33097083D01*
X45039863Y33002639D01*
X44563196Y32907083D01*
X45439863Y32573750D02*
X45439863Y33573750D01*
X45820974Y33573750D01*
X45916530Y33525972D01*
X45963196Y33478194D01*
X46010974Y33383750D01*
X46010974Y33240417D01*
X45963196Y33144861D01*
X45916530Y33097083D01*
X45820974Y33050417D01*
X45439863Y33050417D01*
X47029863Y32669306D02*
X46982085Y32621528D01*
X46839863Y32573750D01*
X46744307Y32573750D01*
X46600974Y32621528D01*
X46506530Y32717083D01*
X46458752Y32811528D01*
X46410974Y33002639D01*
X46410974Y33144861D01*
X46458752Y33335972D01*
X46506530Y33430417D01*
X46600974Y33525972D01*
X46744307Y33573750D01*
X46839863Y33573750D01*
X46982085Y33525972D01*
X47029863Y33478194D01*
X47763196Y33097083D02*
X47906530Y33050417D01*
X47953196Y33002639D01*
X48000974Y32907083D01*
X48000974Y32763750D01*
X47953196Y32669306D01*
X47906530Y32621528D01*
X47810974Y32573750D01*
X47429863Y32573750D01*
X47429863Y33573750D01*
X47763196Y33573750D01*
X47858752Y33525972D01*
X47906530Y33478194D01*
X47953196Y33383750D01*
X47953196Y33288194D01*
X47906530Y33192639D01*
X47858752Y33144861D01*
X47763196Y33097083D01*
X47429863Y33097083D01*
D20*
X6400000Y14320000D03*
D21*
X6405000Y9500000D03*
D22*
X6405000Y12750000D03*
X6405000Y7250000D03*
D20*
X6400000Y5680000D03*
D23*
X6405000Y8480000D03*
D24*
X2600000Y14320000D03*
D21*
X6405000Y10500000D03*
D24*
X2600000Y5680000D03*
D23*
X6405000Y11520000D03*
D25*
X26395000Y28370000D03*
X34015000Y28370000D03*
D26*
X19565000Y18985000D03*
D25*
X23855000Y10870000D03*
X27665000Y10870000D03*
X37825000Y28370000D03*
X28935000Y28370000D03*
X22585000Y10870000D03*
X35285000Y10870000D03*
D26*
X19565000Y13905000D03*
D25*
X30205000Y28370000D03*
X34015000Y10870000D03*
D27*
X19315000Y26605000D03*
D26*
X19565000Y22795000D03*
D25*
X40365000Y28370000D03*
X36555000Y28370000D03*
X27665000Y28370000D03*
D26*
X19565000Y17715000D03*
D27*
X19315000Y12635000D03*
D25*
X31475000Y28370000D03*
X23855000Y28370000D03*
X41635000Y10870000D03*
D26*
X19565000Y25335000D03*
D25*
X32745000Y28370000D03*
X28935000Y10870000D03*
D26*
X19565000Y15175000D03*
D25*
X25125000Y10870000D03*
X31475000Y10870000D03*
X40365000Y10870000D03*
D26*
X19565000Y21525000D03*
D25*
X32745000Y10870000D03*
X22585000Y28370000D03*
X36555000Y10870000D03*
D26*
X19565000Y16445000D03*
D25*
X37825000Y10870000D03*
D26*
X19565000Y24065000D03*
X19565000Y20255000D03*
D28*
X21315000Y28620000D03*
D25*
X25125000Y28370000D03*
X35285000Y28370000D03*
D28*
X21315000Y10620000D03*
D25*
X30205000Y10870000D03*
X26395000Y10870000D03*
X41635000Y28370000D03*
D18*
X20815000Y11870000D02*
X21815000Y12520000D01*
X21815000Y11870000D01*
X20815000Y11870000D01*
G36*
X20815000Y11870000D02*
X21815000Y12520000D01*
X21815000Y11870000D01*
X20815000Y11870000D01*
G37*
X20565000Y26105000D02*
X20565000Y27105000D01*
X21215000Y26105000D01*
X20565000Y26105000D01*
G36*
X20565000Y26105000D02*
X20565000Y27105000D01*
X21215000Y26105000D01*
X20565000Y26105000D01*
G37*
X20815000Y27370000D02*
X21815000Y26720000D01*
X21815000Y27370000D01*
X20815000Y27370000D01*
G36*
X20815000Y27370000D02*
X21815000Y26720000D01*
X21815000Y27370000D01*
X20815000Y27370000D01*
G37*
X20565000Y13135000D02*
X20565000Y12135000D01*
X21215000Y13135000D01*
X20565000Y13135000D01*
G36*
X20565000Y13135000D02*
X20565000Y12135000D01*
X21215000Y13135000D01*
X20565000Y13135000D01*
G37*
D17*
X2000000Y19680000D03*
X2000000Y17780000D03*
D29*
X15398750Y16986250D03*
D30*
X15398750Y11906250D03*
X15398750Y14446250D03*
D31*
X9200000Y29345000D03*
D32*
X9200000Y26805000D03*
D33*
X8035000Y22225000D03*
X5935000Y22225000D03*
D13*
X27622500Y34947500D03*
X27622500Y32997500D03*
D34*
X33368750Y36147500D03*
D35*
X32368750Y35647500D03*
X34368750Y35647500D03*
X32368750Y36647500D03*
X34368750Y36647500D03*
D10*
X11770000Y22225000D03*
X9820000Y22225000D03*
D36*
X23106250Y4603750D03*
X24606250Y4603750D03*
D37*
X21606250Y4603750D03*
D36*
X26106250Y4603750D03*
X27606250Y4603750D03*
D38*
X13592500Y37185000D03*
X11052500Y37185000D03*
X16132500Y37185000D03*
X21212500Y37185000D03*
X18672500Y37185000D03*
D39*
X7900000Y19680000D03*
X5100000Y17780000D03*
X5100000Y18730000D03*
X5100000Y19680000D03*
X7900000Y17780000D03*
D10*
X8525000Y11000000D03*
X10475000Y11000000D03*
D40*
X33870000Y2727500D03*
X36410000Y2727500D03*
X38950000Y6637500D03*
X37680000Y6637500D03*
X37680000Y2727500D03*
X36410000Y6637500D03*
X38950000Y2727500D03*
X33870000Y6637500D03*
X35140000Y2727500D03*
X35140000Y6637500D03*
D19*
X38893750Y36411083D02*
X39065750Y36353750D01*
X39351083Y36353750D01*
X39465750Y36411083D01*
X39521750Y36468417D01*
X39579083Y36581750D01*
X39579083Y36696417D01*
X39521750Y36811083D01*
X39465750Y36868417D01*
X39351083Y36925750D01*
X39121750Y36981750D01*
X39008417Y37039083D01*
X38951083Y37096417D01*
X38893750Y37211083D01*
X38893750Y37325750D01*
X38951083Y37439083D01*
X39008417Y37496417D01*
X39121750Y37553750D01*
X39408417Y37553750D01*
X39579083Y37496417D01*
X40533750Y36411083D02*
X40419083Y36353750D01*
X40191083Y36353750D01*
X40076416Y36411083D01*
X40019083Y36525750D01*
X40019083Y36981750D01*
X40076416Y37096417D01*
X40191083Y37153750D01*
X40419083Y37153750D01*
X40533750Y37096417D01*
X40591083Y36981750D01*
X40591083Y36868417D01*
X40019083Y36753750D01*
X41031083Y37153750D02*
X41031083Y36353750D01*
X41031083Y37039083D02*
X41088416Y37096417D01*
X41203083Y37153750D01*
X41373750Y37153750D01*
X41488416Y37096417D01*
X41545750Y36981750D01*
X41545750Y36353750D01*
X41985750Y36411083D02*
X42100417Y36353750D01*
X42328417Y36353750D01*
X42443083Y36411083D01*
X42500417Y36525750D01*
X42500417Y36581750D01*
X42443083Y36696417D01*
X42328417Y36753750D01*
X42157750Y36753750D01*
X42043083Y36811083D01*
X41985750Y36925750D01*
X41985750Y36981750D01*
X42043083Y37096417D01*
X42157750Y37153750D01*
X42328417Y37153750D01*
X42443083Y37096417D01*
X42997750Y36353750D02*
X42997750Y37153750D01*
X42997750Y37553750D02*
X42940417Y37496417D01*
X42997750Y37439083D01*
X43055084Y37496417D01*
X42997750Y37553750D01*
X42997750Y37439083D01*
X43667084Y36353750D02*
X43552417Y36411083D01*
X43495084Y36525750D01*
X43495084Y37553750D01*
X44335084Y36353750D02*
X44221751Y36411083D01*
X44164417Y36468417D01*
X44107084Y36581750D01*
X44107084Y36925750D01*
X44164417Y37039083D01*
X44221751Y37096417D01*
X44335084Y37153750D01*
X44507084Y37153750D01*
X44621751Y37096417D01*
X44679084Y37039083D01*
X44735084Y36925750D01*
X44735084Y36581750D01*
X44679084Y36468417D01*
X44621751Y36411083D01*
X44507084Y36353750D01*
X44335084Y36353750D01*
X46095083Y37153750D02*
X46380416Y36353750D01*
X46667083Y37153750D01*
X47792416Y36353750D02*
X47107083Y36353750D01*
X47449750Y36353750D02*
X47449750Y37553750D01*
X47335083Y37381750D01*
X47221750Y37268417D01*
X47107083Y37211083D01*
G04 --- BOARD END --- *
%TF.MD5,98da8b40a68c173ac245382c768ce25f*%
M02*
