G04 --- HEADER BEGIN --- *
%TF.GenerationSoftware,LibrePCB,LibrePCB,0.1.4*%
%TF.CreationDate,2020-08-29T22:21:27*%
%TF.ProjectId,Sensilo - default,d394d563-925a-41f4-bd4a-babca7d43e4c,v1*%
%TF.Part,Single*%
%FSLAX66Y66*%
%MOMM*%
G01*
G74*
G04 --- HEADER END --- *
G04 --- APERTURE LIST BEGIN --- *
%ADD10C,0.001*%
G04 --- APERTURE LIST END --- *
G04 --- BOARD BEGIN --- *
D10*
X29876250Y35242500D02*
X29876250Y32226250D01*
G75*
G03*
X30828750Y32226250I476250J0D01*
G01*
X30828750Y35242500D01*
G03*
X29876250Y35242500I-476250J0D01*
G01*
X35912500Y38870000D02*
X35912500Y37810000D01*
G03*
X36912500Y37810000I500000J0D01*
G01*
X36912500Y38870000D01*
G03*
X35912500Y38870000I-500000J0D01*
G01*
X29876250Y38893750D02*
X29876250Y38893750D01*
X30828750Y38893750D01*
X30828750Y37782500D01*
X29876250Y37782500D01*
X29876250Y38893750D01*
X35908750Y35242500D02*
X35908750Y32226250D01*
G03*
X36861250Y32226250I476250J0D01*
G01*
X36861250Y35242500D01*
G03*
X35908750Y35242500I-476250J0D01*
G01*
X29880000Y38870000D02*
X29880000Y37810000D01*
G03*
X30880000Y37810000I500000J0D01*
G01*
X30880000Y38870000D01*
G03*
X29880000Y38870000I-500000J0D01*
G01*
X35908750Y38893750D02*
X35908750Y38893750D01*
X36861250Y38893750D01*
X36861250Y37782500D01*
X35908750Y37782500D01*
X35908750Y38893750D01*
X6000000Y40000000D02*
G03*
X0Y34000000I0J-6000000D01*
G01*
X0Y1000000D01*
G03*
X1000000Y0I1000000J0D01*
G01*
X44000000Y0D01*
G03*
X50000000Y6000000I0J6000000D01*
G01*
X50000000Y39000000D01*
G03*
X49000000Y40000000I-1000000J0D01*
G01*
X6000000Y40000000D01*
G04 --- BOARD END --- *
%TF.MD5,f9d337ea24a667407be9ea94b34d52bb*%
M02*
