G04 --- HEADER BEGIN --- *
%TF.GenerationSoftware,LibrePCB,LibrePCB,0.1.4*%
%TF.CreationDate,2020-08-29T22:21:27*%
%TF.ProjectId,Sensilo - default,d394d563-925a-41f4-bd4a-babca7d43e4c,v1*%
%TF.Part,Single*%
%FSLAX66Y66*%
%MOMM*%
G01*
G74*
G04 --- HEADER END --- *
G04 --- APERTURE LIST BEGIN --- *
%ADD10R,0.75X1.25*%
%ADD11O,1.587X2.19*%
%ADD12R,1.587X2.19*%
%ADD13R,1.25X0.75*%
%ADD14R,0.68X0.4*%
%ADD15R,1.25X1.7*%
%ADD16R,1.3X1.5*%
%ADD17R,1.5X1.3*%
%ADD18O,2.0X1.6*%
%ADD19R,1.15X0.7*%
%ADD20R,1.15X0.9*%
%ADD21R,1.15X0.8*%
%ADD22C,2.0*%
%ADD23R,0.8X3.0*%
%ADD24R,3.0X0.8*%
%ADD25R,2.5X0.8*%
%ADD26R,0.8X2.5*%
%ADD27C,0.0*%
%ADD28R,2.19X1.587*%
%ADD29O,2.19X1.587*%
%ADD30O,2.54X1.8*%
%ADD31R,2.54X1.8*%
%ADD32R,1.2X1.2*%
%ADD33R,0.7X1.6*%
%ADD34R,0.7X0.35*%
%ADD35O,1.2X1.8*%
%ADD36R,1.2X1.8*%
%ADD37C,1.8*%
%ADD38R,1.1X0.6*%
%ADD39R,0.76X2.4*%
%ADD40C,0.7*%
%ADD41C,0.25*%
%ADD42C,0.5*%
G04 --- APERTURE LIST END --- *
G04 --- BOARD BEGIN --- *
D10*
X8525000Y9000000D03*
X10475000Y9000000D03*
D11*
X11747500Y5397500D03*
D12*
X14287500Y5397500D03*
D13*
X23812500Y34947500D03*
X23812500Y32997500D03*
D14*
X9152500Y35090000D03*
D15*
X7937500Y34290000D03*
D14*
X9152500Y33490000D03*
X6722500Y35090000D03*
X6722500Y34290000D03*
X9152500Y34290000D03*
X6722500Y33490000D03*
D16*
X12380000Y33337500D03*
X10480000Y33337500D03*
X34318750Y38702500D03*
X32418750Y38702500D03*
D17*
X10500000Y19680000D03*
X10500000Y17780000D03*
D18*
X6400000Y14320000D03*
D19*
X6405000Y9500000D03*
D20*
X6405000Y12750000D03*
X6405000Y7250000D03*
D18*
X6400000Y5680000D03*
D21*
X6405000Y8480000D03*
D22*
X2600000Y14320000D03*
D19*
X6405000Y10500000D03*
D22*
X2600000Y5680000D03*
D21*
X6405000Y11520000D03*
D23*
X26395000Y28370000D03*
X34015000Y28370000D03*
D24*
X19565000Y18985000D03*
D23*
X23855000Y10870000D03*
X27665000Y10870000D03*
X37825000Y28370000D03*
X28935000Y28370000D03*
X22585000Y10870000D03*
X35285000Y10870000D03*
D24*
X19565000Y13905000D03*
D23*
X30205000Y28370000D03*
X34015000Y10870000D03*
D25*
X19315000Y26605000D03*
D24*
X19565000Y22795000D03*
D23*
X40365000Y28370000D03*
X36555000Y28370000D03*
X27665000Y28370000D03*
D24*
X19565000Y17715000D03*
D25*
X19315000Y12635000D03*
D23*
X31475000Y28370000D03*
X23855000Y28370000D03*
X41635000Y10870000D03*
D24*
X19565000Y25335000D03*
D23*
X32745000Y28370000D03*
X28935000Y10870000D03*
D24*
X19565000Y15175000D03*
D23*
X25125000Y10870000D03*
X31475000Y10870000D03*
X40365000Y10870000D03*
D24*
X19565000Y21525000D03*
D23*
X32745000Y10870000D03*
X22585000Y28370000D03*
X36555000Y10870000D03*
D24*
X19565000Y16445000D03*
D23*
X37825000Y10870000D03*
D24*
X19565000Y24065000D03*
X19565000Y20255000D03*
D26*
X21315000Y28620000D03*
D23*
X25125000Y28370000D03*
X35285000Y28370000D03*
D26*
X21315000Y10620000D03*
D23*
X30205000Y10870000D03*
X26395000Y10870000D03*
X41635000Y28370000D03*
D27*
X20565000Y13035000D02*
X20565000Y12235000D01*
X21065000Y13035000D01*
X20565000Y13035000D01*
G36*
X20565000Y13035000D02*
X20565000Y12235000D01*
X21065000Y13035000D01*
X20565000Y13035000D01*
G37*
X20565000Y26205000D02*
X20565000Y27005000D01*
X21065000Y26205000D01*
X20565000Y26205000D01*
G36*
X20565000Y26205000D02*
X20565000Y27005000D01*
X21065000Y26205000D01*
X20565000Y26205000D01*
G37*
X20915000Y11870000D02*
X21715000Y12370000D01*
X21715000Y11870000D01*
X20915000Y11870000D01*
G36*
X20915000Y11870000D02*
X21715000Y12370000D01*
X21715000Y11870000D01*
X20915000Y11870000D01*
G37*
X20915000Y27370000D02*
X21715000Y26870000D01*
X21715000Y27370000D01*
X20915000Y27370000D01*
G36*
X20915000Y27370000D02*
X21715000Y26870000D01*
X21715000Y27370000D01*
X20915000Y27370000D01*
G37*
D17*
X2000000Y19680000D03*
X2000000Y17780000D03*
D28*
X15398750Y16986250D03*
D29*
X15398750Y11906250D03*
X15398750Y14446250D03*
D30*
X9200000Y29345000D03*
D31*
X9200000Y26805000D03*
D32*
X8035000Y22225000D03*
X5935000Y22225000D03*
D13*
X27622500Y34947500D03*
X27622500Y32997500D03*
D33*
X33368750Y36147500D03*
D34*
X32368750Y35647500D03*
X34368750Y35647500D03*
X32368750Y36647500D03*
X34368750Y36647500D03*
D10*
X11770000Y22225000D03*
X9820000Y22225000D03*
D35*
X23106250Y4603750D03*
X24606250Y4603750D03*
D36*
X21606250Y4603750D03*
D35*
X26106250Y4603750D03*
X27606250Y4603750D03*
D37*
X13592500Y37185000D03*
X11052500Y37185000D03*
X16132500Y37185000D03*
X21212500Y37185000D03*
X18672500Y37185000D03*
D38*
X7900000Y19680000D03*
X5100000Y17780000D03*
X5100000Y18730000D03*
X5100000Y19680000D03*
X7900000Y17780000D03*
D10*
X8525000Y11000000D03*
X10475000Y11000000D03*
D39*
X33870000Y2727500D03*
X36410000Y2727500D03*
X38950000Y6637500D03*
X37680000Y6637500D03*
X37680000Y2727500D03*
X36410000Y6637500D03*
X38950000Y2727500D03*
X33870000Y6637500D03*
X35140000Y2727500D03*
X35140000Y6637500D03*
D40*
X26000000Y7000000D03*
X41000000Y6000000D03*
X14000000Y25000000D03*
X20000000Y33000000D03*
X45000000Y31000000D03*
X40000000Y14000000D03*
X15000000Y25000000D03*
X46000000Y31000000D03*
X41000000Y4000000D03*
X40000000Y15000000D03*
X15000000Y32000000D03*
X34480000Y31432500D03*
X6032500Y32543750D03*
X31622500Y34290000D03*
X23812500Y31750000D03*
X19000000Y35000000D03*
X41000000Y39000000D03*
X27000000Y7000000D03*
X24000000Y14000000D03*
X2000000Y10000000D03*
X2000000Y12000000D03*
X41000000Y13000000D03*
X14000000Y24000000D03*
X42000000Y6000000D03*
X41000000Y14000000D03*
X41000000Y15000000D03*
X41000000Y31000000D03*
X23000000Y14000000D03*
X48000000Y31000000D03*
X42000000Y5000000D03*
X18000000Y35000000D03*
X10000000Y15000000D03*
X42000000Y39000000D03*
X16000000Y25000000D03*
X16000000Y24000000D03*
X26000000Y14000000D03*
X40000000Y39000000D03*
X20000000Y30000000D03*
X41000000Y5000000D03*
X3000000Y12000000D03*
X46000000Y39000000D03*
X10000000Y14000000D03*
X41000000Y3000000D03*
X39000000Y39000000D03*
X47000000Y39000000D03*
X42000000Y31000000D03*
X11000000Y14000000D03*
X47000000Y31000000D03*
X40000000Y31000000D03*
X21000000Y33000000D03*
X14000000Y33000000D03*
X11000000Y15000000D03*
X9000000Y14000000D03*
X16000000Y32000000D03*
X39000000Y15000000D03*
X22000000Y8000000D03*
X3000000Y11000000D03*
X14000000Y32000000D03*
X25590000Y36671250D03*
X13000000Y26625000D03*
X8890000Y19637500D03*
X27000000Y14000000D03*
X39000000Y31000000D03*
X26000000Y8000000D03*
X3000000Y10000000D03*
X2000000Y11000000D03*
X19000000Y30000000D03*
X48000000Y39000000D03*
X45000000Y39000000D03*
X9000000Y15000000D03*
X42000000Y3000000D03*
X18000000Y30000000D03*
X21000000Y7000000D03*
X15000000Y33000000D03*
X42000000Y4000000D03*
X15000000Y24000000D03*
X22000000Y7000000D03*
X25000000Y14000000D03*
X14000000Y34000000D03*
D41*
X36067500Y4762500D02*
X31940000Y4762500D01*
X27665000Y10870000D02*
X27665000Y9037500D01*
X27665000Y9037500D02*
X27812500Y8890000D01*
X36410000Y6637500D02*
X36410000Y5105000D01*
X36410000Y5105000D02*
X36067500Y4762500D01*
X31940000Y4762500D02*
X27812500Y8890000D01*
X37607500Y36147500D02*
X37655000Y36195000D01*
X34318750Y38702500D02*
X34368750Y38528750D01*
X33368750Y36147500D02*
X33662500Y36647500D01*
X33368750Y36147500D02*
X37607500Y36147500D01*
X34368750Y36647500D02*
X33662500Y36647500D01*
X29130000Y36147500D02*
X29082500Y36195000D01*
X34368750Y36647500D02*
X34368750Y38528750D01*
X33368750Y36147500D02*
X29130000Y36147500D01*
X32745000Y30967500D02*
X28722500Y30967500D01*
X14030000Y35817500D02*
X18891250Y30956250D01*
X9152500Y35090000D02*
X9207500Y35083750D01*
X35115000Y35242500D02*
X35115000Y33337500D01*
X27622500Y32067500D02*
X27622500Y32861250D01*
X32745000Y30967500D02*
X35115000Y33337500D01*
X19685000Y30956250D02*
X18891250Y30956250D01*
X34368750Y35647500D02*
X34710000Y35647500D01*
X11052500Y37185000D02*
X11052500Y35817500D01*
X27622500Y32997500D02*
X27622500Y32861250D01*
X34710000Y35647500D02*
X35115000Y35242500D01*
X19685000Y30956250D02*
X28722500Y30967500D01*
X10318750Y35083750D02*
X9207500Y35083750D01*
X11052500Y35817500D02*
X10318750Y35083750D01*
X32745000Y28370000D02*
X32745000Y30967500D01*
X28722500Y30967500D02*
X27622500Y32067500D01*
X11052500Y35817500D02*
X14030000Y35817500D01*
X13592500Y37185000D02*
X19027500Y31750000D01*
X32368750Y35647500D02*
X31868750Y35647500D01*
X6032500Y33178750D02*
X6032500Y32543750D01*
X34015000Y28370000D02*
X34015000Y30967500D01*
X23812500Y31750000D02*
X23812500Y33020000D01*
X31868750Y35647500D02*
X31622500Y35401250D01*
X6343750Y33490000D02*
X6032500Y33178750D01*
X34015000Y30967500D02*
X34480000Y31432500D01*
X19027500Y31750000D02*
X23812500Y31750000D01*
X6722500Y33490000D02*
X6343750Y33490000D01*
X31622500Y35401250D02*
X31622500Y34290000D01*
X23812500Y32997500D02*
X23812500Y33020000D01*
D42*
X5100000Y17780000D02*
X3492784Y17780000D01*
X10160000Y5397500D02*
X11602500Y5397500D01*
X3492544Y17780240D02*
X3500000Y19667500D01*
X8890000Y6667500D02*
X10160000Y5397500D01*
X4520000Y11520000D02*
X4500000Y11500000D01*
X3492500Y25082500D02*
X3500000Y19667500D01*
X3492784Y17780000D02*
X3492544Y17780240D01*
X4500000Y11520000D02*
X4520000Y11520000D01*
X6250000Y8480000D02*
X5000000Y8480000D01*
X5020000Y8480000D02*
X4500000Y9000000D01*
X4500000Y11500000D02*
X4500000Y9000000D01*
X4500000Y11500000D02*
X4520000Y11520000D01*
X4500000Y15750000D02*
X4500000Y11500000D01*
X3500000Y19667500D02*
X2012500Y19680000D01*
X6405000Y11520000D02*
X4500000Y11520000D01*
X11747500Y5397500D02*
X11602500Y5397500D01*
X9200000Y26805000D02*
X5215000Y26805000D01*
X6405000Y8480000D02*
X6250000Y8480000D01*
X5215000Y26805000D02*
X3492500Y25082500D01*
X3492544Y17780240D02*
X3500000Y16750000D01*
X2000000Y19680000D02*
X2012500Y19680000D01*
X5000000Y8480000D02*
X5020000Y8480000D01*
X3500000Y16750000D02*
X4500000Y15750000D01*
X7077500Y8480000D02*
X6250000Y8480000D01*
X3500000Y19667500D02*
X5100000Y19680000D01*
X5000000Y19730000D02*
X5100000Y19680000D01*
X7077500Y8480000D02*
X8890000Y6667500D01*
D41*
X11770000Y22225000D02*
X12382500Y22225000D01*
X16000000Y19000000D02*
X19000000Y19000000D01*
X12775000Y22225000D02*
X16000000Y19000000D01*
X12382500Y22225000D02*
X12775000Y22225000D01*
X19565000Y18985000D02*
X19000000Y19000000D01*
X32745000Y12552500D02*
X33527500Y13335000D01*
X32745000Y10870000D02*
X32745000Y12552500D01*
X37972500Y13335000D02*
X33527500Y13335000D01*
X35140000Y6637500D02*
X35140000Y8280000D01*
X35432500Y8572500D02*
X38290000Y8572500D01*
X35140000Y8280000D02*
X35432500Y8572500D01*
X38607500Y8890000D02*
X38607500Y12700000D01*
X38607500Y12700000D02*
X37972500Y13335000D01*
X38290000Y8572500D02*
X38607500Y8890000D01*
D42*
X8525000Y9000000D02*
X8000000Y9000000D01*
X6405000Y9500000D02*
X6250000Y9500000D01*
X7500000Y9500000D02*
X6250000Y9500000D01*
X7500000Y9500000D02*
X8000000Y9000000D01*
D41*
X38950000Y8280000D02*
X39242500Y8572500D01*
X39242500Y8572500D02*
X39242500Y12700000D01*
X31475000Y10870000D02*
X31475000Y12552500D01*
X39242500Y12700000D02*
X37972500Y13970000D01*
X37972500Y13970000D02*
X32892500Y13970000D01*
X38950000Y6637500D02*
X38950000Y8280000D01*
X31475000Y12552500D02*
X32892500Y13970000D01*
X9820000Y22225000D02*
X7937500Y22225000D01*
X8035000Y22225000D02*
X7937500Y22225000D01*
X15398750Y14446250D02*
X17210000Y12635000D01*
X19315000Y12635000D02*
X17210000Y12635000D01*
X19050000Y12700000D02*
X19315000Y12635000D01*
X10550000Y31950000D02*
X10550000Y31360000D01*
X10550000Y31950000D02*
X10550000Y33265000D01*
X5628750Y31360000D02*
X4762500Y32226250D01*
X4762500Y33020000D02*
X6032500Y34290000D01*
X12382500Y11430000D02*
X12382500Y19050000D01*
X10550000Y31360000D02*
X5628750Y31360000D01*
X32418750Y38702500D02*
X32368750Y38528750D01*
X11747500Y19685000D02*
X10477500Y19685000D01*
X23812500Y35718750D02*
X23812500Y34925000D01*
X10550000Y31360000D02*
X13017500Y28892500D01*
X27622500Y34947500D02*
X27622500Y36671250D01*
X23812500Y34947500D02*
X23812500Y34925000D01*
D42*
X8890000Y19685000D02*
X10500000Y19680000D01*
D41*
X12382500Y19050000D02*
X11747500Y19685000D01*
X19367500Y4445000D02*
X21085000Y2727500D01*
X25558750Y36671250D02*
X25590000Y36671250D01*
X25590000Y36671250D02*
X24765000Y36671250D01*
D42*
X8890000Y19685000D02*
X7900000Y19680000D01*
D41*
X19367500Y4445000D02*
X12382500Y11430000D01*
X24765000Y36671250D02*
X23812500Y35718750D01*
X9152500Y33490000D02*
X10325000Y33490000D01*
X32368750Y36647500D02*
X32368750Y38528750D01*
X13000000Y26500000D02*
X13020000Y26605000D01*
X33870000Y2727500D02*
X21085000Y2727500D01*
X32416250Y36671250D02*
X32368750Y36647500D01*
X10477500Y19685000D02*
X10500000Y19680000D01*
X10325000Y33490000D02*
X10480000Y33337500D01*
X13017500Y28892500D02*
X13000000Y26500000D01*
X4762500Y32226250D02*
X4762500Y33020000D01*
X6722500Y34290000D02*
X6667500Y34290000D01*
D42*
X8890000Y19685000D02*
X8890000Y19637500D01*
X13020000Y26605000D02*
X13000000Y26625000D01*
D41*
X10550000Y33265000D02*
X10480000Y33337500D01*
D42*
X19315000Y26605000D02*
X13020000Y26605000D01*
D41*
X6032500Y34290000D02*
X6667500Y34290000D01*
X27622500Y36671250D02*
X32416250Y36671250D01*
X27622500Y36671250D02*
X25590000Y36671250D01*
X33870000Y6637500D02*
X33870000Y10502500D01*
X34015000Y10870000D02*
X33870000Y10502500D01*
D42*
X21034375Y555625D02*
X16192500Y5397500D01*
X37680000Y2727500D02*
X37680000Y1295000D01*
X16192500Y5397500D02*
X14397500Y5397500D01*
X14287500Y5397500D02*
X14397500Y5397500D01*
X36940625Y555625D02*
X21034375Y555625D01*
X37680000Y1295000D02*
X36940625Y555625D01*
D41*
X19565000Y13905000D02*
X17686250Y13905000D01*
X17303750Y14287500D02*
X17303750Y16510000D01*
X17303750Y16510000D02*
X16827500Y16986250D01*
X15398750Y16986250D02*
X16827500Y16986250D01*
X17686250Y13905000D02*
X17303750Y14287500D01*
D42*
X7500000Y10500000D02*
X8000000Y11000000D01*
X8525000Y11000000D02*
X8000000Y11000000D01*
X7500000Y10500000D02*
X6250000Y10500000D01*
X6405000Y10500000D02*
X6250000Y10500000D01*
D27*
G36*
X49659327Y11019500D02*
X49700000Y11100000D01*
X49700000Y27900000D01*
X49680500Y27959327D01*
X49600000Y28000000D01*
X37355000Y28000000D01*
X37295673Y27980500D01*
X37255000Y27900000D01*
X37255000Y26586013D01*
X37250000Y26554788D01*
X37250000Y26516013D01*
X37248434Y26511248D01*
X37226172Y26500000D01*
X21500000Y26500000D01*
X21440673Y26480500D01*
X21400000Y26400000D01*
X21400000Y12800000D01*
X21419500Y12740673D01*
X21500000Y12700000D01*
X31013137Y12700000D01*
X31072464Y12719500D01*
X31100905Y12752076D01*
X31109701Y12768185D01*
X31109677Y12768198D01*
X31110605Y12769763D01*
X31110628Y12769749D01*
X31122150Y12787676D01*
X31144902Y12813934D01*
X31149381Y12819491D01*
X31172346Y12850168D01*
X31177005Y12855545D01*
X32589455Y14267995D01*
X32594845Y14272665D01*
X32625508Y14295619D01*
X32631068Y14300099D01*
X32657323Y14322849D01*
X32675250Y14334371D01*
X32675236Y14334394D01*
X32676801Y14335322D01*
X32676814Y14335298D01*
X32695518Y14345511D01*
X32728051Y14357645D01*
X32734647Y14360377D01*
X32766254Y14374811D01*
X32786705Y14380816D01*
X32786697Y14380842D01*
X32788462Y14381293D01*
X32788468Y14381265D01*
X32809292Y14385795D01*
X32843910Y14388271D01*
X32851010Y14389034D01*
X32888968Y14394492D01*
X32896070Y14395000D01*
X37968930Y14395000D01*
X37976034Y14394492D01*
X38013992Y14389034D01*
X38021090Y14388271D01*
X38055708Y14385795D01*
X38076531Y14381265D01*
X38076537Y14381293D01*
X38078302Y14380842D01*
X38078294Y14380816D01*
X38098745Y14374811D01*
X38130352Y14360377D01*
X38136948Y14357645D01*
X38169474Y14345513D01*
X38188184Y14335297D01*
X38188198Y14335322D01*
X38189765Y14334392D01*
X38189750Y14334369D01*
X38207681Y14322846D01*
X38233932Y14300099D01*
X38239492Y14295618D01*
X38270164Y14272658D01*
X38275544Y14267996D01*
X39540496Y13003044D01*
X39545158Y12997664D01*
X39568118Y12966992D01*
X39572599Y12961432D01*
X39595346Y12935181D01*
X39606869Y12917250D01*
X39606892Y12917265D01*
X39607822Y12915698D01*
X39607797Y12915684D01*
X39618013Y12896974D01*
X39630145Y12864448D01*
X39632877Y12857852D01*
X39647311Y12826245D01*
X39653316Y12805794D01*
X39653342Y12805802D01*
X39653793Y12804037D01*
X39653765Y12804031D01*
X39658295Y12783208D01*
X39660771Y12748590D01*
X39661534Y12741492D01*
X39666992Y12703534D01*
X39667500Y12696430D01*
X39667500Y11100000D01*
X39687000Y11040673D01*
X39767500Y11000000D01*
X49600000Y11000000D01*
X49659327Y11019500D01*
G37*
G36*
X49659327Y26919500D02*
X49700000Y27000000D01*
X49700000Y38980357D01*
X49699518Y38990159D01*
X49686092Y39126472D01*
X49682268Y39145699D01*
X49648231Y39257902D01*
X49640729Y39276012D01*
X49585469Y39379398D01*
X49574578Y39395699D01*
X49500195Y39486334D01*
X49486334Y39500195D01*
X49395699Y39574578D01*
X49379398Y39585469D01*
X49276012Y39640729D01*
X49257902Y39648231D01*
X49145699Y39682268D01*
X49126472Y39686092D01*
X48990159Y39699518D01*
X48980357Y39700000D01*
X37468750Y39700000D01*
X37409423Y39680500D01*
X37368750Y39600000D01*
X37368750Y32302450D01*
X37368509Y32297557D01*
X37350017Y32109802D01*
X37348109Y32100207D01*
X37294056Y31922019D01*
X37290312Y31912981D01*
X37202536Y31748763D01*
X37197102Y31740631D01*
X37078973Y31596691D01*
X37072058Y31589776D01*
X36928118Y31471647D01*
X36919986Y31466213D01*
X36755768Y31378437D01*
X36746730Y31374693D01*
X36568538Y31320639D01*
X36558956Y31318733D01*
X36371190Y31300240D01*
X36366293Y31300000D01*
X35188882Y31300000D01*
X35129555Y31280500D01*
X35095381Y31235461D01*
X35057693Y31136087D01*
X35052111Y31125453D01*
X34969966Y31006446D01*
X34962007Y30997462D01*
X34853769Y30901571D01*
X34843886Y30894749D01*
X34715851Y30827551D01*
X34704615Y30823290D01*
X34564225Y30788688D01*
X34552296Y30787239D01*
X34540000Y30787239D01*
X34480673Y30767739D01*
X34440000Y30687239D01*
X34440000Y30270000D01*
X34459500Y30210673D01*
X34540000Y30170000D01*
X37238987Y30170000D01*
X37243752Y30168434D01*
X37255000Y30146172D01*
X37255000Y27000000D01*
X37274500Y26940673D01*
X37355000Y26900000D01*
X49600000Y26900000D01*
X49659327Y26919500D01*
G37*
G36*
X20330087Y319500D02*
X20366277Y370395D01*
X20365215Y432836D01*
X20341471Y470711D01*
X15993971Y4818211D01*
X15923260Y4847500D01*
X15481000Y4847500D01*
X15421673Y4828000D01*
X15381000Y4747500D01*
X15381000Y4018513D01*
X15379434Y4013748D01*
X15357172Y4002500D01*
X13210013Y4002500D01*
X13205248Y4004066D01*
X13194000Y4026328D01*
X13194000Y6776487D01*
X13195566Y6781252D01*
X13217828Y6792500D01*
X15364987Y6792500D01*
X15369752Y6790934D01*
X15381000Y6768672D01*
X15381000Y6047500D01*
X15400500Y5988173D01*
X15481000Y5947500D01*
X16189219Y5947500D01*
X16195756Y5947071D01*
X16328351Y5929615D01*
X16340904Y5926251D01*
X16461448Y5876320D01*
X16472699Y5869824D01*
X16578809Y5788402D01*
X16583720Y5784096D01*
X21232902Y1134914D01*
X21303613Y1105625D01*
X33101052Y1105625D01*
X33160379Y1125125D01*
X33196569Y1176020D01*
X33190307Y1250720D01*
X33190000Y1251328D01*
X33190000Y2202500D01*
X33170500Y2261827D01*
X33090000Y2302500D01*
X21088570Y2302500D01*
X21081467Y2303008D01*
X21043521Y2308464D01*
X21036423Y2309227D01*
X21001793Y2311704D01*
X20980967Y2316234D01*
X20980961Y2316206D01*
X20979197Y2316656D01*
X20979205Y2316682D01*
X20958762Y2322685D01*
X20927155Y2337119D01*
X20920561Y2339850D01*
X20888014Y2351990D01*
X20869314Y2362201D01*
X20869301Y2362177D01*
X20867734Y2363106D01*
X20867749Y2363129D01*
X20849823Y2374649D01*
X20823573Y2397395D01*
X20818016Y2401873D01*
X20787338Y2424839D01*
X20781959Y2429500D01*
X19066978Y4144481D01*
X19066977Y4144483D01*
X12084505Y11126955D01*
X12079846Y11132332D01*
X12056884Y11163005D01*
X12052405Y11168562D01*
X12029653Y11194820D01*
X12018128Y11212751D01*
X12018105Y11212736D01*
X12017177Y11214301D01*
X12017201Y11214314D01*
X12006988Y11233018D01*
X11994854Y11265551D01*
X11992122Y11272147D01*
X11977688Y11303753D01*
X11971683Y11324205D01*
X11971657Y11324197D01*
X11971206Y11325962D01*
X11971234Y11325968D01*
X11966704Y11346794D01*
X11964227Y11381422D01*
X11963464Y11388519D01*
X11958008Y11426465D01*
X11957500Y11433570D01*
X11957500Y18832538D01*
X11928211Y18903249D01*
X11720711Y19110749D01*
X11664971Y19138911D01*
X11603393Y19128513D01*
X11559992Y19083609D01*
X11550000Y19040038D01*
X11550000Y18746013D01*
X11548434Y18741248D01*
X11526172Y18730000D01*
X9466013Y18730000D01*
X9461248Y18731566D01*
X9450000Y18753828D01*
X9450000Y19033569D01*
X9430500Y19092896D01*
X9350310Y19133569D01*
X9332541Y19133624D01*
X9269004Y19109638D01*
X9268749Y19110008D01*
X9267257Y19108978D01*
X9265916Y19108472D01*
X9263773Y19106573D01*
X9253887Y19099750D01*
X9125851Y19032551D01*
X9114615Y19028290D01*
X8974225Y18993688D01*
X8962296Y18992239D01*
X8817703Y18992239D01*
X8805774Y18993688D01*
X8665384Y19028290D01*
X8654145Y19032552D01*
X8585567Y19068545D01*
X8539094Y19080000D01*
X7066013Y19080000D01*
X7061248Y19081566D01*
X7050000Y19103828D01*
X7050000Y20263987D01*
X7051566Y20268752D01*
X7073828Y20280000D01*
X8733987Y20280000D01*
X8735195Y20279603D01*
X8790348Y20277509D01*
X8805779Y20281312D01*
X8817703Y20282760D01*
X8962296Y20282760D01*
X8974225Y20281311D01*
X9114618Y20246708D01*
X9130612Y20240643D01*
X9161013Y20235023D01*
X9161013Y21300000D01*
X9156248Y21301566D01*
X9145000Y21323828D01*
X9145000Y21700000D01*
X9125500Y21759327D01*
X9045000Y21800000D01*
X9035000Y21800000D01*
X8975673Y21780500D01*
X8935000Y21700000D01*
X8935000Y21341013D01*
X8933434Y21336248D01*
X8911172Y21325000D01*
X7151013Y21325000D01*
X7146248Y21326566D01*
X7135000Y21348828D01*
X7135000Y23108987D01*
X7136566Y23113752D01*
X7158828Y23125000D01*
X8918987Y23125000D01*
X8923752Y23123434D01*
X8935000Y23101172D01*
X8935000Y22750000D01*
X8954500Y22690673D01*
X9035000Y22650000D01*
X9045000Y22650000D01*
X9104327Y22669500D01*
X9145000Y22750000D01*
X9145000Y23133987D01*
X9146566Y23138752D01*
X9168828Y23150000D01*
X10478987Y23150000D01*
X10483752Y23148434D01*
X10495000Y23126172D01*
X10495000Y21316013D01*
X10493434Y21311248D01*
X10471172Y21300000D01*
X9161013Y21300000D01*
X9161013Y20235023D01*
X9165759Y20234146D01*
X9349690Y20233575D01*
X9409077Y20252891D01*
X9450000Y20333575D01*
X9450000Y20613987D01*
X9451566Y20618752D01*
X9473828Y20630000D01*
X11533987Y20630000D01*
X11538752Y20628434D01*
X11550000Y20606172D01*
X11550000Y20210000D01*
X11569500Y20150673D01*
X11650000Y20110000D01*
X11743930Y20110000D01*
X11751034Y20109492D01*
X11788992Y20104034D01*
X11796090Y20103271D01*
X11830708Y20100795D01*
X11851531Y20096265D01*
X11851537Y20096293D01*
X11853302Y20095842D01*
X11853294Y20095816D01*
X11873745Y20089811D01*
X11905352Y20075377D01*
X11911948Y20072645D01*
X11944474Y20060513D01*
X11963184Y20050297D01*
X11963198Y20050322D01*
X11964765Y20049392D01*
X11964750Y20049369D01*
X11982681Y20037846D01*
X12008932Y20015099D01*
X12014492Y20010618D01*
X12045164Y19987658D01*
X12050544Y19982996D01*
X12680496Y19353044D01*
X12685158Y19347664D01*
X12708118Y19316992D01*
X12712599Y19311432D01*
X12735346Y19285181D01*
X12746869Y19267250D01*
X12746892Y19267265D01*
X12747822Y19265698D01*
X12747797Y19265684D01*
X12758013Y19246974D01*
X12770145Y19214448D01*
X12772877Y19207852D01*
X12787311Y19176245D01*
X12793316Y19155794D01*
X12793342Y19155802D01*
X12793793Y19154037D01*
X12793765Y19154031D01*
X12798295Y19133208D01*
X12800771Y19098590D01*
X12801534Y19091492D01*
X12806992Y19053534D01*
X12807500Y19046430D01*
X12807500Y11647462D01*
X12836789Y11576751D01*
X19668016Y4745524D01*
X19668027Y4745514D01*
X20535539Y3878002D01*
X20591279Y3849840D01*
X20652857Y3860238D01*
X20696258Y3905142D01*
X20706250Y3948713D01*
X20706250Y5787737D01*
X20707816Y5792502D01*
X20730078Y5803750D01*
X22490237Y5803750D01*
X22495002Y5802184D01*
X22506250Y5779922D01*
X22506250Y5769142D01*
X22525750Y5709815D01*
X22576645Y5673625D01*
X22656247Y5682538D01*
X22661037Y5685303D01*
X22823343Y5757567D01*
X22833261Y5760790D01*
X23007052Y5797730D01*
X23017412Y5798819D01*
X23195087Y5798819D01*
X23205447Y5797730D01*
X23379243Y5760789D01*
X23389147Y5757571D01*
X23551469Y5685301D01*
X23560486Y5680094D01*
X23704224Y5575663D01*
X23711981Y5568679D01*
X23781936Y5490986D01*
X23836125Y5459945D01*
X23898163Y5467106D01*
X23930565Y5490986D01*
X24000524Y5568684D01*
X24008275Y5575663D01*
X24152010Y5680092D01*
X24161039Y5685304D01*
X24323343Y5757567D01*
X24333261Y5760790D01*
X24507052Y5797730D01*
X24517412Y5798819D01*
X24695087Y5798819D01*
X24705447Y5797730D01*
X24879243Y5760789D01*
X24889147Y5757571D01*
X25051469Y5685301D01*
X25060486Y5680094D01*
X25204224Y5575663D01*
X25211981Y5568679D01*
X25281936Y5490986D01*
X25336125Y5459945D01*
X25398163Y5467106D01*
X25430565Y5490986D01*
X25500524Y5568684D01*
X25508275Y5575663D01*
X25652010Y5680092D01*
X25661039Y5685304D01*
X25823343Y5757567D01*
X25833261Y5760790D01*
X26007052Y5797730D01*
X26017412Y5798819D01*
X26195087Y5798819D01*
X26205447Y5797730D01*
X26379243Y5760789D01*
X26389147Y5757571D01*
X26551469Y5685301D01*
X26560486Y5680094D01*
X26704224Y5575663D01*
X26711975Y5568684D01*
X26830861Y5436648D01*
X26836983Y5428221D01*
X26925819Y5274352D01*
X26930060Y5264827D01*
X26984964Y5095850D01*
X26987130Y5085660D01*
X27005976Y4906359D01*
X27006250Y4901128D01*
X27006250Y4306372D01*
X27005976Y4301141D01*
X26987130Y4121839D01*
X26984964Y4111649D01*
X26930060Y3942672D01*
X26925819Y3933147D01*
X26836983Y3779278D01*
X26830861Y3770851D01*
X26711975Y3638815D01*
X26704224Y3631836D01*
X26560486Y3527405D01*
X26551469Y3522198D01*
X26389147Y3449928D01*
X26379243Y3446710D01*
X26205447Y3409769D01*
X26195087Y3408680D01*
X26017412Y3408680D01*
X26007052Y3409769D01*
X25833261Y3446709D01*
X25823343Y3449932D01*
X25661039Y3522195D01*
X25652010Y3527407D01*
X25508275Y3631836D01*
X25500524Y3638815D01*
X25430565Y3716513D01*
X25376376Y3747554D01*
X25314338Y3740393D01*
X25281936Y3716513D01*
X25211981Y3638820D01*
X25204224Y3631836D01*
X25060486Y3527405D01*
X25051469Y3522198D01*
X24889147Y3449928D01*
X24879243Y3446710D01*
X24705447Y3409769D01*
X24695087Y3408680D01*
X24517412Y3408680D01*
X24507052Y3409769D01*
X24333261Y3446709D01*
X24323343Y3449932D01*
X24161039Y3522195D01*
X24152010Y3527407D01*
X24008275Y3631836D01*
X24000524Y3638815D01*
X23930565Y3716513D01*
X23876376Y3747554D01*
X23814338Y3740393D01*
X23781936Y3716513D01*
X23711981Y3638820D01*
X23704224Y3631836D01*
X23560486Y3527405D01*
X23551469Y3522198D01*
X23389147Y3449928D01*
X23379243Y3446710D01*
X23205447Y3409769D01*
X23195087Y3408680D01*
X23017412Y3408680D01*
X23007052Y3409769D01*
X22833261Y3446709D01*
X22823343Y3449932D01*
X22661037Y3522196D01*
X22656247Y3524961D01*
X22595118Y3537735D01*
X22538330Y3511752D01*
X22506250Y3438357D01*
X22506250Y3419763D01*
X22504684Y3414998D01*
X22482422Y3403750D01*
X21251213Y3403750D01*
X21191886Y3384250D01*
X21155696Y3333355D01*
X21156758Y3270914D01*
X21180502Y3233039D01*
X21231752Y3181789D01*
X21302463Y3152500D01*
X33090000Y3152500D01*
X33149327Y3172000D01*
X33190000Y3252500D01*
X33190000Y4227500D01*
X33188287Y4227500D01*
X33188287Y4268724D01*
X33151238Y4318996D01*
X33093287Y4337500D01*
X31943572Y4337500D01*
X31936467Y4338008D01*
X31898522Y4343464D01*
X31891424Y4344227D01*
X31856793Y4346704D01*
X31835970Y4351234D01*
X31835964Y4351206D01*
X31834198Y4351657D01*
X31834206Y4351683D01*
X31813755Y4357688D01*
X31782148Y4372122D01*
X31775552Y4374854D01*
X31743021Y4386987D01*
X31724315Y4397201D01*
X31724302Y4397177D01*
X31722733Y4398108D01*
X31722748Y4398131D01*
X31704819Y4409653D01*
X31678558Y4432408D01*
X31673000Y4436887D01*
X31642341Y4459838D01*
X31636951Y4464508D01*
X27511980Y8589479D01*
X27511977Y8589483D01*
X27367004Y8734456D01*
X27362345Y8739833D01*
X27339383Y8770506D01*
X27334904Y8776063D01*
X27312153Y8802319D01*
X27300629Y8820251D01*
X27300606Y8820236D01*
X27299678Y8821799D01*
X27299702Y8821812D01*
X27289486Y8840523D01*
X27277353Y8873053D01*
X27274621Y8879650D01*
X27260186Y8911257D01*
X27254182Y8931704D01*
X27254155Y8931696D01*
X27253704Y8933466D01*
X27253732Y8933472D01*
X27249203Y8954294D01*
X27247569Y8977134D01*
X27223886Y9034919D01*
X27147824Y9070000D01*
X20631013Y9070000D01*
X20626248Y9071566D01*
X20615000Y9093828D01*
X20615000Y11835000D01*
X20595500Y11894327D01*
X20515000Y11935000D01*
X17781013Y11935000D01*
X17776248Y11936566D01*
X17765000Y11958828D01*
X17765000Y12110000D01*
X17745500Y12169327D01*
X17665000Y12210000D01*
X17213572Y12210000D01*
X17206467Y12210508D01*
X17168522Y12215964D01*
X17161424Y12216727D01*
X17126793Y12219204D01*
X17105970Y12223734D01*
X17105964Y12223706D01*
X17104198Y12224157D01*
X17104206Y12224183D01*
X17083755Y12230188D01*
X17052148Y12244622D01*
X17045552Y12247354D01*
X17013021Y12259487D01*
X16994315Y12269701D01*
X16994302Y12269677D01*
X16992733Y12270608D01*
X16992748Y12270631D01*
X16974819Y12282153D01*
X16948558Y12304908D01*
X16943000Y12309387D01*
X16912341Y12332338D01*
X16906951Y12337008D01*
X15908208Y13335751D01*
X15828270Y13364613D01*
X15702555Y13352964D01*
X15697939Y13352750D01*
X15099561Y13352750D01*
X15094944Y13352964D01*
X14900921Y13370942D01*
X14891880Y13372631D01*
X14706671Y13425328D01*
X14698096Y13428650D01*
X14525732Y13514477D01*
X14517909Y13519321D01*
X14364256Y13635354D01*
X14357444Y13641564D01*
X14227737Y13783848D01*
X14222183Y13791201D01*
X14120818Y13954910D01*
X14116719Y13963144D01*
X14047165Y14142682D01*
X14044642Y14151550D01*
X14009263Y14340810D01*
X14008414Y14349975D01*
X14008414Y14542524D01*
X14009263Y14551689D01*
X14044642Y14740949D01*
X14047165Y14749817D01*
X14116719Y14929355D01*
X14120818Y14937589D01*
X14222183Y15101298D01*
X14227737Y15108651D01*
X14357444Y15250935D01*
X14364256Y15257145D01*
X14517909Y15373178D01*
X14525732Y15378022D01*
X14698096Y15463849D01*
X14706671Y15467171D01*
X14891878Y15519867D01*
X14900922Y15521557D01*
X15094945Y15539536D01*
X15099561Y15539750D01*
X15697939Y15539750D01*
X15702555Y15539536D01*
X15896577Y15521558D01*
X15905621Y15519867D01*
X16090828Y15467171D01*
X16099403Y15463849D01*
X16271767Y15378022D01*
X16279590Y15373178D01*
X16433243Y15257145D01*
X16440055Y15250935D01*
X16569762Y15108651D01*
X16575316Y15101298D01*
X16676681Y14937589D01*
X16680780Y14929355D01*
X16685503Y14917164D01*
X16725117Y14868887D01*
X16785648Y14853526D01*
X16843489Y14877072D01*
X16878750Y14953288D01*
X16878750Y15792750D01*
X16859250Y15852077D01*
X16778750Y15892750D01*
X14019763Y15892750D01*
X14014998Y15894316D01*
X14003750Y15916578D01*
X14003750Y18063737D01*
X14005316Y18068502D01*
X14027578Y18079750D01*
X16777737Y18079750D01*
X16782502Y18078184D01*
X16793750Y18055922D01*
X16793750Y17503514D01*
X16813250Y17444187D01*
X16886617Y17403769D01*
X16910710Y17402046D01*
X16931533Y17397517D01*
X16931539Y17397543D01*
X16933303Y17397093D01*
X16933296Y17397067D01*
X16953742Y17391063D01*
X16985337Y17376634D01*
X16991933Y17373902D01*
X17024476Y17361765D01*
X17043185Y17351548D01*
X17043198Y17351572D01*
X17044765Y17350643D01*
X17044750Y17350619D01*
X17062676Y17339099D01*
X17088933Y17316348D01*
X17094490Y17311870D01*
X17125167Y17288905D01*
X17130538Y17284251D01*
X17594289Y16820500D01*
X17650029Y16792338D01*
X17711607Y16802736D01*
X17755008Y16847640D01*
X17765000Y16891211D01*
X17765000Y18475000D01*
X17745500Y18534327D01*
X17665000Y18575000D01*
X16003572Y18575000D01*
X15996467Y18575508D01*
X15958522Y18580964D01*
X15951424Y18581727D01*
X15916793Y18584204D01*
X15895970Y18588734D01*
X15895964Y18588706D01*
X15894198Y18589157D01*
X15894206Y18589183D01*
X15873755Y18595188D01*
X15842148Y18609622D01*
X15835552Y18612354D01*
X15803021Y18624487D01*
X15784315Y18634701D01*
X15784302Y18634677D01*
X15782733Y18635608D01*
X15782748Y18635631D01*
X15764819Y18647153D01*
X15738558Y18669908D01*
X15733000Y18674387D01*
X15702341Y18697338D01*
X15696951Y18702008D01*
X12628248Y21770711D01*
X12557537Y21800000D01*
X12545000Y21800000D01*
X12485673Y21780500D01*
X12445000Y21700000D01*
X12445000Y21316013D01*
X12443434Y21311248D01*
X12421172Y21300000D01*
X11111013Y21300000D01*
X11106248Y21301566D01*
X11095000Y21323828D01*
X11095000Y23133987D01*
X11096566Y23138752D01*
X11118828Y23150000D01*
X12428987Y23150000D01*
X12433752Y23148434D01*
X12445000Y23126172D01*
X12445000Y22750000D01*
X12464500Y22690673D01*
X12545000Y22650000D01*
X12771430Y22650000D01*
X12778534Y22649492D01*
X12816451Y22644040D01*
X12823549Y22643277D01*
X12858203Y22640799D01*
X12879033Y22636267D01*
X12879039Y22636293D01*
X12880802Y22635843D01*
X12880794Y22635816D01*
X12901243Y22629812D01*
X12932821Y22615391D01*
X12939417Y22612659D01*
X12971982Y22600513D01*
X12990686Y22590300D01*
X12990698Y22590323D01*
X12992266Y22589393D01*
X12992251Y22589369D01*
X13010176Y22577849D01*
X13036414Y22555114D01*
X13041971Y22550635D01*
X13072668Y22527655D01*
X13078045Y22522996D01*
X16146752Y19454289D01*
X16217463Y19425000D01*
X17665000Y19425000D01*
X17724327Y19444500D01*
X17765000Y19525000D01*
X17765000Y25955000D01*
X17745500Y26014327D01*
X17665000Y26055000D01*
X13327089Y26055000D01*
X13280617Y26043546D01*
X13235851Y26020051D01*
X13224615Y26015790D01*
X13084225Y25981188D01*
X13072296Y25979739D01*
X12927703Y25979739D01*
X12915774Y25981188D01*
X12775384Y26015790D01*
X12764148Y26020051D01*
X12636113Y26087249D01*
X12626230Y26094071D01*
X12517992Y26189962D01*
X12510033Y26198946D01*
X12427888Y26317953D01*
X12422310Y26328580D01*
X12371031Y26463790D01*
X12368158Y26475449D01*
X12350729Y26618996D01*
X12350729Y26631004D01*
X12368158Y26774550D01*
X12371031Y26786209D01*
X12422310Y26921419D01*
X12427888Y26932046D01*
X12510033Y27051053D01*
X12517997Y27060042D01*
X12546126Y27084963D01*
X12579810Y27159082D01*
X12590905Y28675898D01*
X12561619Y28747340D01*
X10403248Y30905711D01*
X10332537Y30935000D01*
X5632322Y30935000D01*
X5625217Y30935508D01*
X5587272Y30940964D01*
X5580174Y30941727D01*
X5545543Y30944204D01*
X5524720Y30948734D01*
X5524714Y30948706D01*
X5522948Y30949157D01*
X5522956Y30949183D01*
X5502505Y30955188D01*
X5470898Y30969622D01*
X5464302Y30972354D01*
X5431771Y30984487D01*
X5413065Y30994701D01*
X5413052Y30994677D01*
X5411483Y30995608D01*
X5411498Y30995631D01*
X5393569Y31007153D01*
X5367308Y31029908D01*
X5361750Y31034387D01*
X5331091Y31057338D01*
X5325701Y31062008D01*
X4464498Y31923211D01*
X4459844Y31928582D01*
X4436879Y31959259D01*
X4432401Y31964816D01*
X4409650Y31991073D01*
X4398130Y32008999D01*
X4398106Y32008984D01*
X4397177Y32010551D01*
X4397201Y32010564D01*
X4386985Y32029272D01*
X4374846Y32061816D01*
X4372116Y32068407D01*
X4357685Y32100007D01*
X4351683Y32120452D01*
X4351657Y32120444D01*
X4351205Y32122214D01*
X4351232Y32122220D01*
X4346701Y32143046D01*
X4344223Y32177701D01*
X4343460Y32184798D01*
X4338008Y32222715D01*
X4337500Y32229822D01*
X4337500Y33016428D01*
X4338008Y33023533D01*
X4343464Y33061478D01*
X4344227Y33068576D01*
X4346704Y33103204D01*
X4351234Y33124030D01*
X4351206Y33124036D01*
X4351657Y33125802D01*
X4351683Y33125794D01*
X4357688Y33146246D01*
X4372122Y33177852D01*
X4374854Y33184448D01*
X4386988Y33216981D01*
X4397201Y33235685D01*
X4397177Y33235698D01*
X4398105Y33237263D01*
X4398128Y33237249D01*
X4409650Y33255176D01*
X4432402Y33281434D01*
X4436881Y33286991D01*
X4459846Y33317668D01*
X4464505Y33323045D01*
X5729455Y34587995D01*
X5734845Y34592665D01*
X5765508Y34615619D01*
X5771068Y34620099D01*
X5797323Y34642849D01*
X5815250Y34654371D01*
X5815236Y34654394D01*
X5816801Y34655322D01*
X5816814Y34655298D01*
X5835518Y34665511D01*
X5868051Y34677645D01*
X5874647Y34680377D01*
X5906254Y34694811D01*
X5926705Y34700816D01*
X5926697Y34700842D01*
X5928462Y34701293D01*
X5928468Y34701265D01*
X5949292Y34705795D01*
X5983910Y34708271D01*
X5991014Y34709035D01*
X6003236Y34710793D01*
X6059183Y34738541D01*
X6083999Y34778548D01*
X6084066Y34778752D01*
X6106328Y34790000D01*
X7346487Y34790000D01*
X7351252Y34788434D01*
X7362500Y34766172D01*
X7362500Y33006013D01*
X7360934Y33001248D01*
X7338672Y32990000D01*
X6696972Y32990000D01*
X6637645Y32970500D01*
X6601455Y32919605D01*
X6608210Y32845882D01*
X6608046Y32845820D01*
X6608270Y32845229D01*
X6608426Y32843528D01*
X6610190Y32840167D01*
X6661470Y32704953D01*
X6664340Y32693307D01*
X6681771Y32549754D01*
X6681771Y32537746D01*
X6664340Y32394192D01*
X6661470Y32382546D01*
X6610189Y32247330D01*
X6604611Y32236703D01*
X6522466Y32117696D01*
X6514507Y32108712D01*
X6406269Y32012821D01*
X6396386Y32005999D01*
X6334552Y31973546D01*
X6291082Y31928708D01*
X6282690Y31866825D01*
X6312648Y31812030D01*
X6381024Y31785000D01*
X10025000Y31785000D01*
X10084327Y31804500D01*
X10125000Y31885000D01*
X10125000Y32187500D01*
X10105500Y32246827D01*
X10025000Y32287500D01*
X9546013Y32287500D01*
X9541248Y32289066D01*
X9530000Y32311328D01*
X9530000Y32890000D01*
X9510500Y32949327D01*
X9430000Y32990000D01*
X8528513Y32990000D01*
X8523748Y32991566D01*
X8512500Y33013828D01*
X8512500Y33973987D01*
X8514066Y33978752D01*
X8536328Y33990000D01*
X9430000Y33990000D01*
X9489327Y34009500D01*
X9530000Y34090000D01*
X9530000Y34371487D01*
X9531566Y34376252D01*
X9553828Y34387500D01*
X11413987Y34387500D01*
X11418752Y34385934D01*
X11430000Y34363672D01*
X11430000Y32303513D01*
X11428434Y32298748D01*
X11406172Y32287500D01*
X11075000Y32287500D01*
X11015673Y32268000D01*
X10975000Y32187500D01*
X10975000Y31577463D01*
X11004289Y31506752D01*
X13315495Y29195546D01*
X13320160Y29190162D01*
X13344279Y29157943D01*
X13348281Y29152940D01*
X13372055Y29125094D01*
X13383116Y29107603D01*
X13393011Y29089483D01*
X13405815Y29055152D01*
X13408245Y29049223D01*
X13423227Y29015773D01*
X13428897Y28995925D01*
X13433296Y28975704D01*
X13435908Y28939185D01*
X13436569Y28932814D01*
X13442006Y28892928D01*
X13442462Y28885819D01*
X13430539Y27255731D01*
X13449604Y27196263D01*
X13530536Y27155000D01*
X17665000Y27155000D01*
X17724327Y27174500D01*
X17765000Y27255000D01*
X17765000Y27288987D01*
X17766566Y27293752D01*
X17788828Y27305000D01*
X20848987Y27305000D01*
X20853752Y27303434D01*
X20865000Y27281172D01*
X20865000Y26982316D01*
X20884500Y26922989D01*
X20935395Y26886799D01*
X21010096Y26893062D01*
X21023828Y26900000D01*
X21785000Y26900000D01*
X21844327Y26919500D01*
X21885000Y27000000D01*
X21885000Y30153987D01*
X21886566Y30158752D01*
X21908828Y30170000D01*
X32220000Y30170000D01*
X32279327Y30189500D01*
X32320000Y30270000D01*
X32320000Y30442500D01*
X32300500Y30501827D01*
X32220000Y30542500D01*
X28722498Y30542500D01*
X19685530Y30531251D01*
X19685530Y30531037D01*
X19685000Y30531037D01*
X19685000Y30531250D01*
X18894820Y30531250D01*
X18887715Y30531758D01*
X18849769Y30537214D01*
X18842672Y30537977D01*
X18808044Y30540454D01*
X18787218Y30544984D01*
X18787212Y30544956D01*
X18785447Y30545407D01*
X18785455Y30545433D01*
X18765003Y30551438D01*
X18733397Y30565872D01*
X18726801Y30568604D01*
X18694268Y30580738D01*
X18675564Y30590951D01*
X18675551Y30590927D01*
X18673986Y30591855D01*
X18674001Y30591878D01*
X18656070Y30603403D01*
X18629812Y30626155D01*
X18624255Y30630634D01*
X18593582Y30653596D01*
X18588205Y30658255D01*
X13883249Y35363211D01*
X13812538Y35392500D01*
X11269962Y35392500D01*
X11199251Y35363211D01*
X10621795Y34785755D01*
X10616418Y34781096D01*
X10585741Y34758131D01*
X10580184Y34753652D01*
X10553926Y34730900D01*
X10535999Y34719378D01*
X10536013Y34719355D01*
X10534448Y34718427D01*
X10534435Y34718451D01*
X10515731Y34708238D01*
X10483198Y34696104D01*
X10476602Y34693372D01*
X10444996Y34678938D01*
X10424544Y34672933D01*
X10424552Y34672907D01*
X10422786Y34672456D01*
X10422780Y34672484D01*
X10401954Y34667954D01*
X10367326Y34665477D01*
X10360228Y34664714D01*
X10322283Y34659258D01*
X10315178Y34658750D01*
X9882229Y34658750D01*
X9822902Y34639250D01*
X9797959Y34604797D01*
X9768672Y34590000D01*
X8528513Y34590000D01*
X8523748Y34591566D01*
X8512500Y34613828D01*
X8512500Y35573987D01*
X8514066Y35578752D01*
X8536328Y35590000D01*
X9776487Y35590000D01*
X9781251Y35588434D01*
X9793771Y35563654D01*
X9837930Y35519496D01*
X9883026Y35508750D01*
X10101288Y35508750D01*
X10171999Y35538039D01*
X10574679Y35940719D01*
X10602841Y35996459D01*
X10592443Y36058037D01*
X10546231Y36102060D01*
X10456459Y36143922D01*
X10448922Y36148274D01*
X10284730Y36263242D01*
X10278071Y36268829D01*
X10136329Y36410571D01*
X10130742Y36417230D01*
X10015774Y36581422D01*
X10011425Y36588954D01*
X9926712Y36770620D01*
X9923739Y36778789D01*
X9871860Y36972404D01*
X9870349Y36980977D01*
X9852881Y37180645D01*
X9852881Y37189355D01*
X9870349Y37389022D01*
X9871860Y37397595D01*
X9923739Y37591210D01*
X9926712Y37599379D01*
X10011425Y37781045D01*
X10015773Y37788576D01*
X10130742Y37952770D01*
X10136331Y37959430D01*
X10278071Y38101170D01*
X10284730Y38106757D01*
X10448922Y38221725D01*
X10456454Y38226074D01*
X10638120Y38310787D01*
X10646289Y38313760D01*
X10839903Y38365639D01*
X10848478Y38367150D01*
X11048145Y38384619D01*
X11056855Y38384619D01*
X11256521Y38367150D01*
X11265096Y38365639D01*
X11458710Y38313760D01*
X11466879Y38310787D01*
X11648545Y38226074D01*
X11656076Y38221726D01*
X11820270Y38106757D01*
X11826930Y38101168D01*
X11968668Y37959430D01*
X11974257Y37952770D01*
X12089226Y37788576D01*
X12093574Y37781045D01*
X12178287Y37599379D01*
X12181260Y37591210D01*
X12225907Y37424586D01*
X12260098Y37372327D01*
X12318626Y37350543D01*
X12378664Y37367730D01*
X12419093Y37424587D01*
X12463738Y37591207D01*
X12466712Y37599379D01*
X12551425Y37781045D01*
X12555773Y37788576D01*
X12670742Y37952770D01*
X12676331Y37959430D01*
X12818071Y38101170D01*
X12824730Y38106757D01*
X12988922Y38221725D01*
X12996454Y38226074D01*
X13178120Y38310787D01*
X13186289Y38313760D01*
X13379903Y38365639D01*
X13388478Y38367150D01*
X13588145Y38384619D01*
X13596855Y38384619D01*
X13796521Y38367150D01*
X13805096Y38365639D01*
X13998710Y38313760D01*
X14006879Y38310787D01*
X14188545Y38226074D01*
X14196076Y38221726D01*
X14360270Y38106757D01*
X14366930Y38101168D01*
X14508668Y37959430D01*
X14514257Y37952770D01*
X14629226Y37788576D01*
X14633574Y37781045D01*
X14718287Y37599379D01*
X14721260Y37591210D01*
X14773139Y37397596D01*
X14774650Y37389021D01*
X14792119Y37189355D01*
X14792119Y37180645D01*
X14774650Y36980978D01*
X14773139Y36972403D01*
X14721260Y36778789D01*
X14718287Y36770620D01*
X14712781Y36758813D01*
X14705381Y36696803D01*
X14732701Y36645840D01*
X18668145Y32710396D01*
X18668145Y35985381D01*
X18468477Y36002849D01*
X18459904Y36004360D01*
X18266289Y36056239D01*
X18258120Y36059212D01*
X18076454Y36143925D01*
X18068922Y36148274D01*
X17904730Y36263242D01*
X17898071Y36268829D01*
X17756329Y36410571D01*
X17750742Y36417230D01*
X17635774Y36581422D01*
X17631425Y36588954D01*
X17546712Y36770620D01*
X17543739Y36778789D01*
X17491860Y36972404D01*
X17490349Y36980977D01*
X17472881Y37180645D01*
X17472881Y37189355D01*
X17490349Y37389022D01*
X17491860Y37397595D01*
X17543739Y37591210D01*
X17546712Y37599379D01*
X17631425Y37781045D01*
X17635773Y37788576D01*
X17750742Y37952770D01*
X17756331Y37959430D01*
X17898071Y38101170D01*
X17904730Y38106757D01*
X18068922Y38221725D01*
X18076454Y38226074D01*
X18258120Y38310787D01*
X18266289Y38313760D01*
X18459903Y38365639D01*
X18468478Y38367150D01*
X18668145Y38384619D01*
X18676855Y38384619D01*
X18876521Y38367150D01*
X18885096Y38365639D01*
X19078710Y38313760D01*
X19086879Y38310787D01*
X19268545Y38226074D01*
X19276076Y38221726D01*
X19440270Y38106757D01*
X19446930Y38101168D01*
X19588668Y37959430D01*
X19594257Y37952770D01*
X19709226Y37788576D01*
X19713574Y37781045D01*
X19798287Y37599379D01*
X19801260Y37591210D01*
X19845907Y37424586D01*
X19880098Y37372327D01*
X19938626Y37350543D01*
X19998664Y37367730D01*
X20039093Y37424587D01*
X20083738Y37591207D01*
X20086712Y37599379D01*
X20171425Y37781045D01*
X20175773Y37788576D01*
X20290742Y37952770D01*
X20296331Y37959430D01*
X20438071Y38101170D01*
X20444730Y38106757D01*
X20608922Y38221725D01*
X20616454Y38226074D01*
X20798120Y38310787D01*
X20806289Y38313760D01*
X20999903Y38365639D01*
X21008478Y38367150D01*
X21208145Y38384619D01*
X21216855Y38384619D01*
X21416521Y38367150D01*
X21425096Y38365639D01*
X21618710Y38313760D01*
X21626879Y38310787D01*
X21808545Y38226074D01*
X21816076Y38221726D01*
X21980270Y38106757D01*
X21986930Y38101168D01*
X22128668Y37959430D01*
X22134257Y37952770D01*
X22249226Y37788576D01*
X22253574Y37781045D01*
X22338287Y37599379D01*
X22341260Y37591210D01*
X22393139Y37397596D01*
X22394650Y37389021D01*
X22412119Y37189355D01*
X22412119Y37180645D01*
X22394650Y36980978D01*
X22393139Y36972403D01*
X22341260Y36778789D01*
X22338287Y36770620D01*
X22253574Y36588954D01*
X22249225Y36581422D01*
X22134257Y36417230D01*
X22128670Y36410571D01*
X21986930Y36268831D01*
X21980270Y36263242D01*
X21816076Y36148273D01*
X21808545Y36143925D01*
X21626879Y36059212D01*
X21618710Y36056239D01*
X21425095Y36004360D01*
X21416522Y36002849D01*
X21216855Y35985381D01*
X21208145Y35985381D01*
X21008477Y36002849D01*
X20999904Y36004360D01*
X20806289Y36056239D01*
X20798120Y36059212D01*
X20616454Y36143925D01*
X20608922Y36148274D01*
X20444730Y36263242D01*
X20438071Y36268829D01*
X20296329Y36410571D01*
X20290742Y36417230D01*
X20175774Y36581422D01*
X20171425Y36588954D01*
X20086712Y36770620D01*
X20083738Y36778792D01*
X20039093Y36945412D01*
X20004902Y36997672D01*
X19946375Y37019456D01*
X19886336Y37002270D01*
X19845907Y36945413D01*
X19801260Y36778789D01*
X19798287Y36770620D01*
X19713574Y36588954D01*
X19709225Y36581422D01*
X19594257Y36417230D01*
X19588670Y36410571D01*
X19446930Y36268831D01*
X19440270Y36263242D01*
X19276076Y36148273D01*
X19268545Y36143925D01*
X19086879Y36059212D01*
X19078710Y36056239D01*
X18885095Y36004360D01*
X18876522Y36002849D01*
X18676855Y35985381D01*
X18668145Y35985381D01*
X18668145Y32710396D01*
X19174252Y32204289D01*
X19244963Y32175000D01*
X22811500Y32175000D01*
X22870827Y32194500D01*
X22907017Y32245395D01*
X22900754Y32320097D01*
X22887500Y32346329D01*
X22887500Y33656487D01*
X22889066Y33661252D01*
X22911328Y33672500D01*
X24721487Y33672500D01*
X24726252Y33670934D01*
X24737500Y33648672D01*
X24737500Y32338513D01*
X24735934Y32333748D01*
X24713672Y32322500D01*
X24391915Y32322500D01*
X24332588Y32303000D01*
X24296398Y32252105D01*
X24309617Y32165693D01*
X24384611Y32057046D01*
X24390189Y32046419D01*
X24441470Y31911203D01*
X24444340Y31899557D01*
X24461771Y31756004D01*
X24461771Y31743996D01*
X24444340Y31600442D01*
X24441469Y31588793D01*
X24416410Y31522716D01*
X24413606Y31460329D01*
X24448360Y31408444D01*
X24510036Y31387256D01*
X27456737Y31390924D01*
X27516041Y31410498D01*
X27552167Y31461438D01*
X27551027Y31523878D01*
X27527324Y31561635D01*
X27324498Y31764461D01*
X27319844Y31769832D01*
X27296879Y31800509D01*
X27292401Y31806066D01*
X27269650Y31832323D01*
X27258130Y31850249D01*
X27258106Y31850234D01*
X27257178Y31851799D01*
X27257202Y31851812D01*
X27246986Y31870521D01*
X27234847Y31903067D01*
X27232115Y31909662D01*
X27217685Y31941259D01*
X27211681Y31961705D01*
X27211655Y31961697D01*
X27211204Y31963466D01*
X27211232Y31963472D01*
X27206703Y31984294D01*
X27204225Y32018936D01*
X27203462Y32026033D01*
X27198008Y32063965D01*
X27197500Y32071070D01*
X27197500Y32222500D01*
X27178000Y32281827D01*
X27097500Y32322500D01*
X26713513Y32322500D01*
X26708748Y32324066D01*
X26697500Y32346328D01*
X26697500Y33656487D01*
X26699066Y33661252D01*
X26721328Y33672500D01*
X28531487Y33672500D01*
X28536252Y33670934D01*
X28547500Y33648672D01*
X28547500Y32338513D01*
X28545934Y32333748D01*
X28523672Y32322500D01*
X28209963Y32322500D01*
X28150636Y32303000D01*
X28114446Y32252105D01*
X28115508Y32189664D01*
X28139252Y32151789D01*
X28869252Y31421789D01*
X28939963Y31392500D01*
X29626341Y31392500D01*
X29685668Y31412000D01*
X29721858Y31462895D01*
X29720796Y31525336D01*
X29689780Y31569801D01*
X29665445Y31589772D01*
X29658526Y31596691D01*
X29540397Y31740631D01*
X29534963Y31748763D01*
X29447187Y31912981D01*
X29443443Y31922019D01*
X29389389Y32100211D01*
X29387483Y32109793D01*
X29368990Y32297560D01*
X29368750Y32302457D01*
X29368750Y36146250D01*
X29349250Y36205577D01*
X29268750Y36246250D01*
X28147500Y36246250D01*
X28088173Y36226750D01*
X28047500Y36146250D01*
X28047500Y35722500D01*
X28067000Y35663173D01*
X28147500Y35622500D01*
X28531487Y35622500D01*
X28536252Y35620934D01*
X28547500Y35598672D01*
X28547500Y34288513D01*
X28545934Y34283748D01*
X28523672Y34272500D01*
X26713513Y34272500D01*
X26708748Y34274066D01*
X26697500Y34296328D01*
X26697500Y35606487D01*
X26699066Y35611252D01*
X26721328Y35622500D01*
X27097500Y35622500D01*
X27156827Y35642000D01*
X27197500Y35722500D01*
X27197500Y36146250D01*
X27178000Y36205577D01*
X27097500Y36246250D01*
X26121263Y36246250D01*
X26054950Y36221101D01*
X25963769Y36140321D01*
X25953886Y36133499D01*
X25825851Y36066301D01*
X25814615Y36062040D01*
X25674225Y36027438D01*
X25662296Y36025989D01*
X25517703Y36025989D01*
X25505774Y36027438D01*
X25365384Y36062040D01*
X25354148Y36066301D01*
X25226113Y36133499D01*
X25216230Y36140321D01*
X25125049Y36221101D01*
X25058736Y36246250D01*
X24982463Y36246250D01*
X24911752Y36216961D01*
X24488002Y35793211D01*
X24459840Y35737471D01*
X24470238Y35675893D01*
X24515142Y35632492D01*
X24558713Y35622500D01*
X24721487Y35622500D01*
X24726252Y35620934D01*
X24737500Y35598672D01*
X24737500Y34288513D01*
X24735934Y34283748D01*
X24713672Y34272500D01*
X22903513Y34272500D01*
X22898748Y34274066D01*
X22887500Y34296328D01*
X22887500Y35606487D01*
X22889066Y35611252D01*
X22911328Y35622500D01*
X23287768Y35622500D01*
X23347095Y35642000D01*
X23387513Y35715362D01*
X23388008Y35722285D01*
X23393462Y35760215D01*
X23394225Y35767313D01*
X23396703Y35801957D01*
X23401233Y35822780D01*
X23401204Y35822786D01*
X23401654Y35824549D01*
X23401681Y35824541D01*
X23407685Y35844990D01*
X23422119Y35876595D01*
X23424851Y35883191D01*
X23436988Y35915732D01*
X23447202Y35934438D01*
X23447178Y35934451D01*
X23448106Y35936014D01*
X23448130Y35935999D01*
X23459653Y35953930D01*
X23482395Y35980175D01*
X23486876Y35985735D01*
X23509842Y36016414D01*
X23514504Y36021795D01*
X24461956Y36969247D01*
X24467336Y36973909D01*
X24498020Y36996878D01*
X24503580Y37001359D01*
X24529820Y37024097D01*
X24547750Y37035620D01*
X24547735Y37035643D01*
X24549303Y37036574D01*
X24549316Y37036550D01*
X24568018Y37046763D01*
X24600566Y37058903D01*
X24607157Y37061633D01*
X24638759Y37076064D01*
X24659202Y37082066D01*
X24659194Y37082092D01*
X24660963Y37082544D01*
X24660969Y37082517D01*
X24681792Y37087047D01*
X24716438Y37089525D01*
X24723536Y37090288D01*
X24761466Y37095742D01*
X24768570Y37096250D01*
X25058737Y37096250D01*
X25125050Y37121399D01*
X25216230Y37202178D01*
X25226113Y37209000D01*
X25354148Y37276198D01*
X25365384Y37280459D01*
X25505774Y37315061D01*
X25517703Y37316510D01*
X25662296Y37316510D01*
X25674225Y37315061D01*
X25814615Y37280459D01*
X25825851Y37276198D01*
X25953886Y37209000D01*
X25963769Y37202178D01*
X26054949Y37121399D01*
X26121262Y37096250D01*
X29268750Y37096250D01*
X29328077Y37115750D01*
X29368750Y37196250D01*
X29368750Y39600000D01*
X29349250Y39659327D01*
X29268750Y39700000D01*
X6007865Y39700000D01*
X6003939Y39699923D01*
X5556730Y39682352D01*
X5548902Y39681736D01*
X5112264Y39630056D01*
X5104509Y39628828D01*
X4673268Y39543050D01*
X4665633Y39541216D01*
X4242441Y39421863D01*
X4234973Y39419437D01*
X3822481Y39267261D01*
X3815227Y39264256D01*
X3415939Y39080181D01*
X3408943Y39076617D01*
X3025299Y38861766D01*
X3018604Y38857663D01*
X2653024Y38613390D01*
X2646672Y38608775D01*
X2301382Y38336570D01*
X2295411Y38331470D01*
X1972540Y38033011D01*
X1966988Y38027459D01*
X1668529Y37704588D01*
X1663429Y37698617D01*
X1391224Y37353327D01*
X1386609Y37346975D01*
X1142336Y36981395D01*
X1138233Y36974700D01*
X923382Y36591056D01*
X919818Y36584060D01*
X735743Y36184772D01*
X732738Y36177518D01*
X580562Y35765026D01*
X578136Y35757558D01*
X458783Y35334366D01*
X456949Y35326731D01*
X371171Y34895490D01*
X369943Y34887735D01*
X318263Y34451097D01*
X317647Y34443269D01*
X300077Y33996063D01*
X300000Y33992137D01*
X300000Y1019659D01*
X300482Y1009858D01*
X313910Y873518D01*
X317734Y854290D01*
X351768Y742097D01*
X359270Y723987D01*
X414530Y620601D01*
X425421Y604300D01*
X499804Y513665D01*
X513665Y499804D01*
X604300Y425421D01*
X620601Y414530D01*
X723987Y359270D01*
X742097Y351768D01*
X854290Y317734D01*
X873518Y313910D01*
X1009858Y300482D01*
X1019659Y300000D01*
X2595656Y300000D01*
X2595656Y4380380D01*
X2378604Y4399369D01*
X2370042Y4400879D01*
X2159587Y4457270D01*
X2151418Y4460243D01*
X1953955Y4552322D01*
X1946424Y4556670D01*
X1767952Y4681638D01*
X1761291Y4687227D01*
X1607227Y4841291D01*
X1601638Y4847952D01*
X1476670Y5026424D01*
X1472322Y5033955D01*
X1380243Y5231418D01*
X1377270Y5239587D01*
X1320879Y5450042D01*
X1319369Y5458604D01*
X1300380Y5675656D01*
X1300380Y5684344D01*
X1319369Y5901395D01*
X1320879Y5909957D01*
X1377270Y6120412D01*
X1380243Y6128581D01*
X1472322Y6326045D01*
X1476670Y6333576D01*
X1601638Y6512047D01*
X1607227Y6518708D01*
X1761291Y6672772D01*
X1767952Y6678361D01*
X1946424Y6803329D01*
X1953955Y6807677D01*
X2151418Y6899756D01*
X2159587Y6902729D01*
X2370038Y6959120D01*
X2378613Y6960631D01*
X2595645Y6979619D01*
X2604355Y6979619D01*
X2821386Y6960631D01*
X2829961Y6959120D01*
X3040412Y6902729D01*
X3048581Y6899756D01*
X3246045Y6807677D01*
X3253576Y6803329D01*
X3432047Y6678361D01*
X3438708Y6672772D01*
X3592772Y6518708D01*
X3598361Y6512047D01*
X3723329Y6333576D01*
X3727677Y6326045D01*
X3819756Y6128581D01*
X3822729Y6120412D01*
X3879120Y5909961D01*
X3880631Y5901386D01*
X3899619Y5684355D01*
X3899619Y5675645D01*
X3880631Y5458613D01*
X3879120Y5450038D01*
X3822729Y5239587D01*
X3819756Y5231418D01*
X3727677Y5033955D01*
X3723329Y5026424D01*
X3598361Y4847952D01*
X3592772Y4841291D01*
X3438708Y4687227D01*
X3432047Y4681638D01*
X3253576Y4556670D01*
X3246045Y4552322D01*
X3048581Y4460243D01*
X3040412Y4457270D01*
X2829957Y4400879D01*
X2821395Y4399369D01*
X2604344Y4380380D01*
X2595656Y4380380D01*
X2595656Y300000D01*
X6202311Y300000D01*
X6202311Y4580000D01*
X6197694Y4580214D01*
X6002480Y4598302D01*
X5993431Y4599994D01*
X5807078Y4653016D01*
X5798496Y4656341D01*
X5625060Y4742701D01*
X5617237Y4747545D01*
X5462628Y4864301D01*
X5455818Y4870509D01*
X5325295Y5013686D01*
X5319747Y5021032D01*
X5217752Y5185759D01*
X5213650Y5193998D01*
X5143663Y5374653D01*
X5141140Y5383521D01*
X5105541Y5573960D01*
X5104692Y5583125D01*
X5104692Y5776874D01*
X5105541Y5786039D01*
X5141140Y5976478D01*
X5143663Y5985346D01*
X5213650Y6166001D01*
X5217752Y6174240D01*
X5319747Y6338967D01*
X5325295Y6346313D01*
X5455818Y6489490D01*
X5462628Y6495698D01*
X5617237Y6612454D01*
X5625060Y6617298D01*
X5798496Y6703658D01*
X5807078Y6706983D01*
X5993431Y6760005D01*
X6002480Y6761697D01*
X6197695Y6779786D01*
X6202311Y6780000D01*
X6597689Y6780000D01*
X6602305Y6779786D01*
X6797519Y6761697D01*
X6806568Y6760005D01*
X6992921Y6706983D01*
X7001503Y6703658D01*
X7174939Y6617298D01*
X7182762Y6612454D01*
X7337371Y6495698D01*
X7344181Y6489490D01*
X7474704Y6346313D01*
X7480252Y6338967D01*
X7582247Y6174240D01*
X7586349Y6166001D01*
X7656336Y5985346D01*
X7658859Y5976478D01*
X7694458Y5786039D01*
X7695307Y5776874D01*
X7695307Y5583125D01*
X7694458Y5573960D01*
X7658859Y5383521D01*
X7656336Y5374653D01*
X7586349Y5193998D01*
X7582247Y5185759D01*
X7480252Y5021032D01*
X7474704Y5013686D01*
X7344181Y4870509D01*
X7337371Y4864301D01*
X7182762Y4747545D01*
X7174939Y4742701D01*
X7001503Y4656341D01*
X6992921Y4653016D01*
X6806568Y4599994D01*
X6797519Y4598302D01*
X6602306Y4580214D01*
X6597689Y4580000D01*
X6202311Y4580000D01*
X6202311Y300000D01*
X11651225Y300000D01*
X11651225Y4007164D01*
X11642060Y4008013D01*
X11452800Y4043392D01*
X11443932Y4045915D01*
X11264394Y4115469D01*
X11256160Y4119568D01*
X11092451Y4220933D01*
X11085098Y4226487D01*
X10942814Y4356194D01*
X10936604Y4363006D01*
X10820571Y4516659D01*
X10815727Y4524482D01*
X10729902Y4696843D01*
X10726574Y4705433D01*
X10706818Y4774867D01*
X10671827Y4826593D01*
X10610636Y4847500D01*
X10163269Y4847500D01*
X10156760Y4847926D01*
X10141259Y4849967D01*
X10024148Y4865384D01*
X10011591Y4868750D01*
X9962704Y4889000D01*
X9962702Y4889001D01*
X9891052Y4918679D01*
X9879800Y4925175D01*
X9786087Y4997085D01*
X9774225Y5006188D01*
X9773879Y5006935D01*
X9767599Y5012083D01*
X8501092Y6278590D01*
X8501090Y6278593D01*
X7028972Y7750711D01*
X6958261Y7780000D01*
X5546013Y7780000D01*
X5541248Y7781566D01*
X5530000Y7803828D01*
X5530000Y7830000D01*
X5510500Y7889327D01*
X5430000Y7930000D01*
X5003270Y7930000D01*
X4996761Y7930426D01*
X4864141Y7947885D01*
X4851599Y7951246D01*
X4731052Y8001179D01*
X4719801Y8007675D01*
X4616295Y8087098D01*
X4607096Y8096297D01*
X4549121Y8171851D01*
X4540497Y8181686D01*
X4112009Y8610174D01*
X4111359Y8612133D01*
X4106932Y8616512D01*
X4094294Y8632982D01*
X4094293Y8632983D01*
X4027677Y8719797D01*
X4021180Y8731051D01*
X4011262Y8754997D01*
X4011260Y8754999D01*
X3971246Y8851600D01*
X3967885Y8864141D01*
X3950426Y8996761D01*
X3950000Y9003270D01*
X3950000Y13699656D01*
X3930500Y13758983D01*
X3879605Y13795173D01*
X3817164Y13794111D01*
X3759369Y13741918D01*
X3727677Y13673955D01*
X3723329Y13666424D01*
X3598361Y13487952D01*
X3592772Y13481291D01*
X3438708Y13327227D01*
X3432047Y13321638D01*
X3253576Y13196670D01*
X3246045Y13192322D01*
X3048581Y13100243D01*
X3040412Y13097270D01*
X2829957Y13040879D01*
X2821395Y13039369D01*
X2604344Y13020380D01*
X2595656Y13020380D01*
X2378604Y13039369D01*
X2370042Y13040879D01*
X2159587Y13097270D01*
X2151418Y13100243D01*
X1953955Y13192322D01*
X1946424Y13196670D01*
X1767952Y13321638D01*
X1761291Y13327227D01*
X1607227Y13481291D01*
X1601638Y13487952D01*
X1476670Y13666424D01*
X1472322Y13673955D01*
X1380243Y13871418D01*
X1377270Y13879587D01*
X1320879Y14090042D01*
X1319369Y14098604D01*
X1300380Y14315656D01*
X1300380Y14324344D01*
X1319369Y14541395D01*
X1320879Y14549957D01*
X1377270Y14760412D01*
X1380243Y14768581D01*
X1472322Y14966045D01*
X1476670Y14973576D01*
X1601638Y15152047D01*
X1607227Y15158708D01*
X1761291Y15312772D01*
X1767952Y15318361D01*
X1946424Y15443329D01*
X1953955Y15447677D01*
X2151418Y15539756D01*
X2159587Y15542729D01*
X2370038Y15599120D01*
X2378613Y15600631D01*
X2595645Y15619619D01*
X2604355Y15619619D01*
X2821386Y15600631D01*
X2829961Y15599120D01*
X3040412Y15542729D01*
X3048581Y15539756D01*
X3246045Y15447677D01*
X3253576Y15443329D01*
X3432047Y15318361D01*
X3438708Y15312772D01*
X3592772Y15158708D01*
X3598361Y15152047D01*
X3723329Y14973576D01*
X3727680Y14966041D01*
X3759369Y14898082D01*
X3802115Y14852553D01*
X3863536Y14841263D01*
X3919678Y14868614D01*
X3950000Y14940343D01*
X3950000Y15480760D01*
X3920711Y15551471D01*
X3113406Y16358776D01*
X3109099Y16363688D01*
X3068702Y16416333D01*
X3068260Y16416905D01*
X3029443Y16466741D01*
X3025515Y16473544D01*
X3025156Y16474159D01*
X3021343Y16480654D01*
X2997066Y16539265D01*
X2996787Y16539931D01*
X2972158Y16598194D01*
X2970160Y16605655D01*
X2969967Y16606366D01*
X2967946Y16613696D01*
X2959666Y16676588D01*
X2959568Y16677306D01*
X2950467Y16742771D01*
X2949991Y16749302D01*
X2942583Y17772986D01*
X2942605Y17773370D01*
X2942586Y17785281D01*
X2942562Y17785675D01*
X2945896Y18629605D01*
X2926631Y18689009D01*
X2845897Y18730000D01*
X966013Y18730000D01*
X961248Y18731566D01*
X950000Y18753828D01*
X950000Y20613987D01*
X951566Y20618752D01*
X973828Y20630000D01*
X2848528Y20630000D01*
X2907855Y20649500D01*
X2948528Y20730139D01*
X2942506Y25078435D01*
X2943031Y25086532D01*
X2951835Y25153404D01*
X2951808Y25153548D01*
X2951853Y25153542D01*
X2960197Y25217610D01*
X2963759Y25230930D01*
X2988665Y25291062D01*
X2988718Y25291188D01*
X3013328Y25350836D01*
X3017310Y25357734D01*
X3017364Y25357828D01*
X3020150Y25362667D01*
X3060150Y25414795D01*
X3060235Y25414906D01*
X3100601Y25467663D01*
X3105926Y25473744D01*
X3866929Y26234747D01*
X3866929Y34004662D01*
X3860135Y34005127D01*
X3596474Y34041366D01*
X3589796Y34042753D01*
X3333531Y34114556D01*
X3327102Y34116841D01*
X3082999Y34222870D01*
X3076957Y34226000D01*
X2849548Y34364291D01*
X2843996Y34368210D01*
X2637543Y34536172D01*
X2632561Y34540825D01*
X2450910Y34735326D01*
X2446606Y34740617D01*
X2293133Y34958038D01*
X2289587Y34963869D01*
X2167154Y35200153D01*
X2164429Y35206426D01*
X2075309Y35457188D01*
X2073470Y35463751D01*
X2019323Y35724320D01*
X2018395Y35731072D01*
X2000233Y35996594D01*
X2000233Y36003406D01*
X2018395Y36268927D01*
X2019323Y36275679D01*
X2073470Y36536248D01*
X2075309Y36542811D01*
X2164429Y36793573D01*
X2167154Y36799846D01*
X2289587Y37036130D01*
X2293133Y37041961D01*
X2446606Y37259382D01*
X2450910Y37264673D01*
X2632561Y37459174D01*
X2637543Y37463827D01*
X2843996Y37631789D01*
X2849548Y37635708D01*
X3076957Y37773999D01*
X3082999Y37777129D01*
X3327102Y37883158D01*
X3333531Y37885443D01*
X3589796Y37957246D01*
X3596474Y37958633D01*
X3860135Y37994872D01*
X3866929Y37995337D01*
X4133070Y37995337D01*
X4139864Y37994872D01*
X4403525Y37958633D01*
X4410203Y37957246D01*
X4666468Y37885443D01*
X4672897Y37883158D01*
X4917000Y37777129D01*
X4923042Y37773999D01*
X5150451Y37635708D01*
X5156003Y37631789D01*
X5362456Y37463827D01*
X5367438Y37459174D01*
X5549089Y37264673D01*
X5553393Y37259382D01*
X5706866Y37041961D01*
X5710412Y37036130D01*
X5832845Y36799846D01*
X5835570Y36793573D01*
X5924690Y36542811D01*
X5926529Y36536248D01*
X5980675Y36275681D01*
X5981604Y36268926D01*
X5999767Y36003406D01*
X5999767Y35996594D01*
X5981604Y35731073D01*
X5980675Y35724318D01*
X5926529Y35463751D01*
X5924690Y35457188D01*
X5835570Y35206426D01*
X5832845Y35200153D01*
X5710412Y34963869D01*
X5706866Y34958038D01*
X5553393Y34740617D01*
X5549089Y34735326D01*
X5367438Y34540825D01*
X5362456Y34536172D01*
X5156003Y34368210D01*
X5150451Y34364291D01*
X4923042Y34226000D01*
X4917000Y34222870D01*
X4672897Y34116841D01*
X4666468Y34114556D01*
X4410203Y34042753D01*
X4403525Y34041366D01*
X4139864Y34005127D01*
X4133070Y34004662D01*
X3866929Y34004662D01*
X3866929Y26234747D01*
X4823778Y27191596D01*
X4828689Y27195902D01*
X4934796Y27277321D01*
X4946055Y27283822D01*
X4997184Y27305000D01*
X5066592Y27333750D01*
X5079151Y27337115D01*
X5211744Y27354571D01*
X5218281Y27355000D01*
X7530000Y27355000D01*
X7589327Y27374500D01*
X7630000Y27455000D01*
X7630000Y27988987D01*
X7631566Y27993752D01*
X7653828Y28005000D01*
X10753987Y28005000D01*
X10758752Y28003434D01*
X10770000Y27981172D01*
X10770000Y25621013D01*
X10768434Y25616248D01*
X10746172Y25605000D01*
X7646013Y25605000D01*
X7641248Y25606566D01*
X7630000Y25628828D01*
X7630000Y26155000D01*
X7610500Y26214327D01*
X7530000Y26255000D01*
X5484240Y26255000D01*
X5413529Y26225711D01*
X4072161Y24884343D01*
X4042872Y24813493D01*
X4049093Y20322452D01*
X4068675Y20263152D01*
X4149869Y20222594D01*
X4164813Y20222710D01*
X4223988Y20242670D01*
X4237678Y20261735D01*
X4273828Y20280000D01*
X5933987Y20280000D01*
X5938752Y20278434D01*
X5950000Y20256172D01*
X5950000Y19096013D01*
X5948434Y19091248D01*
X5926172Y19080000D01*
X4266013Y19080000D01*
X4251162Y19084881D01*
X4224005Y19112038D01*
X4178127Y19122781D01*
X4146675Y19122535D01*
X4087502Y19102572D01*
X4047458Y19022933D01*
X4045117Y18430395D01*
X4064382Y18370991D01*
X4145116Y18330000D01*
X4166434Y18330000D01*
X4225761Y18349500D01*
X4232855Y18359298D01*
X4273828Y18380000D01*
X5933987Y18380000D01*
X5938752Y18378434D01*
X5950000Y18356172D01*
X5950000Y17196013D01*
X5948434Y17191248D01*
X5926172Y17180000D01*
X4266013Y17180000D01*
X4256481Y17183133D01*
X4220359Y17219254D01*
X4175263Y17230000D01*
X4147266Y17230000D01*
X4087939Y17210500D01*
X4047269Y17129277D01*
X4048056Y17020464D01*
X4077342Y16950476D01*
X4886596Y16141222D01*
X4890902Y16136311D01*
X4972321Y16030203D01*
X4978822Y16018944D01*
X5028732Y15898450D01*
X5032117Y15885832D01*
X5049571Y15753256D01*
X5050000Y15746719D01*
X5050000Y14894775D01*
X5069500Y14835448D01*
X5120395Y14799258D01*
X5182836Y14800320D01*
X5235022Y14842132D01*
X5319747Y14978967D01*
X5325290Y14986308D01*
X5455818Y15129490D01*
X5462628Y15135698D01*
X5617237Y15252454D01*
X5625060Y15257298D01*
X5798496Y15343658D01*
X5807078Y15346983D01*
X5993431Y15400005D01*
X6002480Y15401697D01*
X6197695Y15419786D01*
X6202311Y15420000D01*
X6597689Y15420000D01*
X6602305Y15419786D01*
X6797519Y15401697D01*
X6806568Y15400005D01*
X6992921Y15346983D01*
X7001503Y15343658D01*
X7066013Y15311536D01*
X7066013Y17180000D01*
X7061248Y17181566D01*
X7050000Y17203828D01*
X7050000Y18363987D01*
X7051566Y18368752D01*
X7073828Y18380000D01*
X8733987Y18380000D01*
X8738752Y18378434D01*
X8750000Y18356172D01*
X8750000Y17196013D01*
X8748434Y17191248D01*
X8726172Y17180000D01*
X7066013Y17180000D01*
X7066013Y15311536D01*
X7174939Y15257298D01*
X7182762Y15252454D01*
X7337371Y15135698D01*
X7344181Y15129490D01*
X7474709Y14986308D01*
X7480252Y14978967D01*
X7582247Y14814240D01*
X7586349Y14806001D01*
X7656336Y14625346D01*
X7658859Y14616478D01*
X7694458Y14426039D01*
X7695307Y14416874D01*
X7695307Y14223125D01*
X7694458Y14213960D01*
X7658859Y14023521D01*
X7656336Y14014653D01*
X7586349Y13833998D01*
X7582247Y13825759D01*
X7480252Y13661032D01*
X7474704Y13653686D01*
X7344181Y13510509D01*
X7337371Y13504301D01*
X7182762Y13387545D01*
X7174939Y13382701D01*
X7001503Y13296341D01*
X6992921Y13293016D01*
X6806568Y13239994D01*
X6797519Y13238302D01*
X6602306Y13220214D01*
X6597689Y13220000D01*
X6202311Y13220000D01*
X6197694Y13220214D01*
X6002480Y13238302D01*
X5993431Y13239994D01*
X5807078Y13293016D01*
X5798496Y13296341D01*
X5625060Y13382701D01*
X5617237Y13387545D01*
X5462628Y13504301D01*
X5455818Y13510509D01*
X5325295Y13653686D01*
X5319747Y13661032D01*
X5235022Y13797867D01*
X5187210Y13838043D01*
X5124887Y13842019D01*
X5072358Y13808245D01*
X5050000Y13745224D01*
X5050000Y12170000D01*
X5069500Y12110673D01*
X5150000Y12070000D01*
X5430000Y12070000D01*
X5489327Y12089500D01*
X5530000Y12170000D01*
X5530000Y12203987D01*
X5531566Y12208752D01*
X5553828Y12220000D01*
X7263987Y12220000D01*
X7268752Y12218434D01*
X7280000Y12196172D01*
X7280000Y11299239D01*
X7299500Y11239912D01*
X7350395Y11203722D01*
X7412836Y11204784D01*
X7450711Y11228528D01*
X7608779Y11386596D01*
X7613690Y11390902D01*
X7719797Y11472321D01*
X7731056Y11478822D01*
X7779943Y11499071D01*
X7788265Y11502518D01*
X7835616Y11543235D01*
X7850000Y11594907D01*
X7850000Y11908987D01*
X7851566Y11913752D01*
X7873828Y11925000D01*
X9183987Y11925000D01*
X9188752Y11923434D01*
X9200000Y11901172D01*
X9200000Y10091013D01*
X9194556Y10074451D01*
X9170283Y10050178D01*
X9170284Y9959986D01*
X9200000Y9901172D01*
X9200000Y8091013D01*
X9198434Y8086248D01*
X9176172Y8075000D01*
X8501739Y8075000D01*
X8442412Y8055500D01*
X8406222Y8004605D01*
X8407284Y7942164D01*
X8431028Y7904289D01*
X9278902Y7056415D01*
X9278917Y7056401D01*
X10358529Y5976789D01*
X10429240Y5947500D01*
X10610636Y5947500D01*
X10669963Y5967000D01*
X10706818Y6020133D01*
X10726574Y6089566D01*
X10729902Y6098156D01*
X10815727Y6270517D01*
X10820571Y6278340D01*
X10936604Y6431993D01*
X10942814Y6438805D01*
X11085098Y6568512D01*
X11092451Y6574066D01*
X11256160Y6675431D01*
X11264394Y6679530D01*
X11443932Y6749084D01*
X11452800Y6751607D01*
X11642060Y6786986D01*
X11651225Y6787835D01*
X11843774Y6787835D01*
X11852939Y6786986D01*
X12042199Y6751607D01*
X12051067Y6749084D01*
X12230605Y6679530D01*
X12238839Y6675431D01*
X12402548Y6574066D01*
X12409901Y6568512D01*
X12552185Y6438805D01*
X12558395Y6431993D01*
X12674428Y6278340D01*
X12679272Y6270517D01*
X12765099Y6098153D01*
X12768421Y6089578D01*
X12821117Y5904371D01*
X12822808Y5895327D01*
X12840786Y5701305D01*
X12841000Y5696689D01*
X12841000Y5098311D01*
X12840786Y5093695D01*
X12822807Y4899672D01*
X12821117Y4890628D01*
X12768421Y4705421D01*
X12765099Y4696846D01*
X12679272Y4524482D01*
X12674428Y4516659D01*
X12558395Y4363006D01*
X12552185Y4356194D01*
X12409901Y4226487D01*
X12402548Y4220933D01*
X12238839Y4119568D01*
X12230605Y4115469D01*
X12051067Y4045915D01*
X12042199Y4043392D01*
X11852939Y4008013D01*
X11843774Y4007164D01*
X11651225Y4007164D01*
X11651225Y300000D01*
X20270760Y300000D01*
X20330087Y319500D01*
G37*
G36*
X43996063Y300077D02*
X44443269Y317647D01*
X44451097Y318263D01*
X44887735Y369943D01*
X44895490Y371171D01*
X45326731Y456949D01*
X45334366Y458783D01*
X45757558Y578136D01*
X45765026Y580562D01*
X45866929Y618155D01*
X45866929Y2004662D01*
X45860135Y2005127D01*
X45596474Y2041366D01*
X45589796Y2042753D01*
X45333531Y2114556D01*
X45327102Y2116841D01*
X45082999Y2222870D01*
X45076957Y2226000D01*
X44849548Y2364291D01*
X44843996Y2368210D01*
X44637543Y2536172D01*
X44632561Y2540825D01*
X44450910Y2735326D01*
X44446606Y2740617D01*
X44293133Y2958038D01*
X44289587Y2963869D01*
X44167154Y3200153D01*
X44164429Y3206426D01*
X44075309Y3457188D01*
X44073470Y3463751D01*
X44019323Y3724320D01*
X44018395Y3731072D01*
X44000233Y3996594D01*
X44000233Y4003406D01*
X44018395Y4268927D01*
X44019323Y4275679D01*
X44073470Y4536248D01*
X44075309Y4542811D01*
X44164429Y4793573D01*
X44167154Y4799846D01*
X44289587Y5036130D01*
X44293133Y5041961D01*
X44446606Y5259382D01*
X44450910Y5264673D01*
X44632561Y5459174D01*
X44637543Y5463827D01*
X44843996Y5631789D01*
X44849548Y5635708D01*
X45076957Y5773999D01*
X45082999Y5777129D01*
X45327102Y5883158D01*
X45333531Y5885443D01*
X45589796Y5957246D01*
X45596474Y5958633D01*
X45860135Y5994872D01*
X45866929Y5995337D01*
X46133070Y5995337D01*
X46139864Y5994872D01*
X46403525Y5958633D01*
X46410203Y5957246D01*
X46666468Y5885443D01*
X46672897Y5883158D01*
X46917000Y5777129D01*
X46923042Y5773999D01*
X47150451Y5635708D01*
X47156003Y5631789D01*
X47362456Y5463827D01*
X47367438Y5459174D01*
X47549089Y5264673D01*
X47553393Y5259382D01*
X47706866Y5041961D01*
X47710412Y5036130D01*
X47832845Y4799846D01*
X47835570Y4793573D01*
X47924690Y4542811D01*
X47926529Y4536248D01*
X47980675Y4275681D01*
X47981604Y4268926D01*
X47999767Y4003406D01*
X47999767Y3996594D01*
X47981604Y3731073D01*
X47980675Y3724318D01*
X47926529Y3463751D01*
X47924690Y3457188D01*
X47835570Y3206426D01*
X47832845Y3200153D01*
X47710412Y2963869D01*
X47706866Y2958038D01*
X47553393Y2740617D01*
X47549089Y2735326D01*
X47367438Y2540825D01*
X47362456Y2536172D01*
X47156003Y2368210D01*
X47150451Y2364291D01*
X46923042Y2226000D01*
X46917000Y2222870D01*
X46672897Y2116841D01*
X46666468Y2114556D01*
X46410203Y2042753D01*
X46403525Y2041366D01*
X46139864Y2005127D01*
X46133070Y2004662D01*
X45866929Y2004662D01*
X45866929Y618155D01*
X46177518Y732738D01*
X46184772Y735743D01*
X46584060Y919818D01*
X46591056Y923382D01*
X46974700Y1138233D01*
X46981395Y1142336D01*
X47346975Y1386609D01*
X47353327Y1391224D01*
X47698617Y1663429D01*
X47704588Y1668529D01*
X48027459Y1966988D01*
X48033011Y1972540D01*
X48331470Y2295411D01*
X48336570Y2301382D01*
X48608775Y2646672D01*
X48613390Y2653024D01*
X48857663Y3018604D01*
X48861766Y3025299D01*
X49076617Y3408943D01*
X49080181Y3415939D01*
X49264256Y3815227D01*
X49267261Y3822481D01*
X49419437Y4234973D01*
X49421863Y4242441D01*
X49541216Y4665633D01*
X49543050Y4673268D01*
X49628828Y5104509D01*
X49630056Y5112264D01*
X49681736Y5548902D01*
X49682352Y5556730D01*
X49699923Y6003939D01*
X49700000Y6007865D01*
X49700000Y12200000D01*
X49680500Y12259327D01*
X49600000Y12300000D01*
X39767500Y12300000D01*
X39708173Y12280500D01*
X39667500Y12200000D01*
X39667500Y8576070D01*
X39666992Y8568966D01*
X39661535Y8531015D01*
X39660772Y8523916D01*
X39658296Y8489295D01*
X39653766Y8468468D01*
X39653793Y8468462D01*
X39653342Y8466698D01*
X39653317Y8466705D01*
X39647313Y8446257D01*
X39632879Y8414651D01*
X39630147Y8408057D01*
X39618011Y8375520D01*
X39607800Y8356820D01*
X39607825Y8356806D01*
X39606892Y8355233D01*
X39606869Y8355248D01*
X39595348Y8337321D01*
X39572585Y8311051D01*
X39568105Y8305491D01*
X39559674Y8294228D01*
X39539732Y8235048D01*
X39558789Y8175576D01*
X39608504Y8139302D01*
X39618753Y8135933D01*
X39630000Y8113672D01*
X39630000Y5153513D01*
X39628434Y5148748D01*
X39606172Y5137500D01*
X36927175Y5137500D01*
X36867848Y5118000D01*
X36827430Y5044634D01*
X36825796Y5021790D01*
X36821267Y5000967D01*
X36821293Y5000961D01*
X36820843Y4999197D01*
X36820817Y4999204D01*
X36814813Y4978758D01*
X36800378Y4947150D01*
X36797646Y4940553D01*
X36785513Y4908023D01*
X36775297Y4889312D01*
X36775321Y4889299D01*
X36774393Y4887736D01*
X36774370Y4887751D01*
X36762846Y4869819D01*
X36740105Y4843574D01*
X36735628Y4838018D01*
X36712662Y4807340D01*
X36708001Y4801961D01*
X36370539Y4464499D01*
X36365160Y4459838D01*
X36334482Y4436872D01*
X36328926Y4432395D01*
X36302680Y4409653D01*
X36284748Y4398129D01*
X36284763Y4398106D01*
X36283200Y4397178D01*
X36283187Y4397202D01*
X36264476Y4386986D01*
X36231946Y4374853D01*
X36225349Y4372121D01*
X36193741Y4357686D01*
X36173295Y4351682D01*
X36173302Y4351656D01*
X36171537Y4351206D01*
X36171531Y4351232D01*
X36150709Y4346703D01*
X36116063Y4344225D01*
X36108966Y4343462D01*
X36071035Y4338008D01*
X36063928Y4337500D01*
X34644947Y4337500D01*
X34585620Y4318000D01*
X34549430Y4267105D01*
X34552751Y4227500D01*
X34550000Y4227500D01*
X34550000Y1243513D01*
X34547810Y1236850D01*
X34547810Y1174400D01*
X34584860Y1124128D01*
X34642810Y1105625D01*
X36671386Y1105625D01*
X36742097Y1134914D01*
X36970711Y1363528D01*
X37000000Y1434239D01*
X37000000Y4211487D01*
X37001566Y4216252D01*
X37023828Y4227500D01*
X38343987Y4227500D01*
X38348752Y4225934D01*
X38360000Y4203672D01*
X38360000Y1243513D01*
X38358434Y1238748D01*
X38336172Y1227500D01*
X38307162Y1227500D01*
X38247835Y1208000D01*
X38210569Y1153379D01*
X38208751Y1146593D01*
X38158822Y1026053D01*
X38152325Y1014800D01*
X38070902Y908689D01*
X38066594Y903777D01*
X37633528Y470711D01*
X37605366Y414971D01*
X37615764Y353393D01*
X37660668Y309992D01*
X37704239Y300000D01*
X43992137Y300000D01*
X43996063Y300077D01*
G37*
G04 --- BOARD END --- *
%TF.MD5,91b7274a3ecc47ffee55ae07512170a0*%
M02*
